<?xml version="1.0" encoding="UTF-8" standalone="no"?>
<!-- Created with Inkscape (http://www.inkscape.org/) -->

<svg
   xmlns:dc="http://purl.org/dc/elements/1.1/"
   xmlns:cc="http://creativecommons.org/ns#"
   xmlns:rdf="http://www.w3.org/1999/02/22-rdf-syntax-ns#"
   xmlns:svg="http://www.w3.org/2000/svg"
   xmlns="http://www.w3.org/2000/svg"
   xmlns:xlink="http://www.w3.org/1999/xlink"
   xmlns:sodipodi="http://sodipodi.sourceforge.net/DTD/sodipodi-0.dtd"
   xmlns:inkscape="http://www.inkscape.org/namespaces/inkscape"
   width="297mm"
   height="210mm"
   viewBox="0 0 297 210"
   version="1.1"
   id="svg8"
   inkscape:version="0.92.4 (5da689c313, 2019-01-14)"
   sodipodi:docname="rysunek-5.svg">
  <defs
     id="defs2">
    <linearGradient
       inkscape:collect="always"
       id="rrtyyy-1-1-6-6-5-3">
      <stop
         style="stop-color:#bdc5ce;stop-opacity:1;"
         offset="0"
         id="stop1246" />
      <stop
         style="stop-color:#0f1215;stop-opacity:0"
         offset="1"
         id="stop1248" />
    </linearGradient>
    <linearGradient
       inkscape:collect="always"
       xlink:href="#rrtyyy-1-1-6-6-5-3"
       id="linearGradient1252"
       x1="-1.85625"
       y1="67.068756"
       x2="304.79626"
       y2="182.52751"
       gradientUnits="userSpaceOnUse" />
  </defs>
  <sodipodi:namedview
     id="base"
     pagecolor="#ffffff"
     bordercolor="#666666"
     borderopacity="1.0"
     inkscape:pageopacity="0.0"
     inkscape:pageshadow="2"
     inkscape:zoom="0.71268238"
     inkscape:cx="502.69681"
     inkscape:cy="396.85039"
     inkscape:document-units="mm"
     inkscape:current-layer="svg8"
     showgrid="false"
     inkscape:snap-global="false"
     inkscape:snap-bbox="false"
     inkscape:window-width="1280"
     inkscape:window-height="961"
     inkscape:window-x="-8"
     inkscape:window-y="-8"
     inkscape:window-maximized="1"
     inkscape:snap-page="true" />
  <metadata
     id="metadata5">
    <rdf:RDF>
      <cc:Work
         rdf:about="">
        <dc:format>image/svg+xml</dc:format>
        <dc:type
           rdf:resource="http://purl.org/dc/dcmitype/StillImage" />
        <dc:title></dc:title>
      </cc:Work>
    </rdf:RDF>
  </metadata>
  <rect
     style="opacity:1;fill:url(#linearGradient1252);fill-opacity:1;fill-rule:evenodd;stroke:#000000;stroke-width:0.70999998;stroke-linecap:round;stroke-linejoin:round;stroke-miterlimit:4;stroke-dasharray:none;stroke-dashoffset:0;stroke-opacity:1;paint-order:normal"
     id="rect1223"
     width="297"
     height="210"
     x="0"
     y="4.8319498e-06" />
  <g
     inkscape:label="Layer 1"
     inkscape:groupmode="layer"
     id="layer1"
     transform="translate(0,-87)"
     style="display:none">
    <rect
       style="opacity:1;fill:none;fill-opacity:1;fill-rule:evenodd;stroke:#000000;stroke-width:0.60999995;stroke-linecap:round;stroke-linejoin:round;stroke-miterlimit:4;stroke-dasharray:none;stroke-dashoffset:0;stroke-opacity:1;paint-order:normal"
       id="rect815"
       width="279.92252"
       height="198.24748"
       x="5.9400001"
       y="92.441254"
       ry="1.778553e-17" />
    <rect
       style="opacity:1;fill:none;fill-opacity:1;fill-rule:evenodd;stroke:#000000;stroke-width:0.60999995;stroke-linecap:round;stroke-linejoin:round;stroke-miterlimit:4;stroke-dasharray:none;stroke-dashoffset:0;stroke-opacity:1;paint-order:normal"
       id="rect817"
       width="279.92255"
       height="131.42247"
       x="5.9400001"
       y="159.26625"
       ry="1.778553e-17" />
    <rect
       style="opacity:1;fill:none;fill-opacity:1;fill-rule:evenodd;stroke:#000000;stroke-width:0.60999995;stroke-linecap:round;stroke-linejoin:round;stroke-miterlimit:4;stroke-dasharray:none;stroke-dashoffset:0;stroke-opacity:1;paint-order:normal"
       id="rect819"
       width="103.5788"
       height="66.824997"
       x="182.28375"
       y="92.441254"
       ry="1.778553e-17" />
    <rect
       style="opacity:1;fill:none;fill-opacity:1;fill-rule:evenodd;stroke:#000000;stroke-width:0.60999995;stroke-linecap:round;stroke-linejoin:round;stroke-miterlimit:4;stroke-dasharray:none;stroke-dashoffset:0;stroke-opacity:1;paint-order:normal"
       id="rect821"
       width="217.18124"
       height="131.05125"
       x="5.9400001"
       y="159.26625"
       ry="0" />
    <rect
       style="opacity:1;fill:none;fill-opacity:1;fill-rule:evenodd;stroke:#000000;stroke-width:0.60999995;stroke-linecap:round;stroke-linejoin:round;stroke-miterlimit:4;stroke-dasharray:none;stroke-dashoffset:0;stroke-opacity:1;paint-order:normal"
       id="rect823"
       width="62.741272"
       height="66.824997"
       x="223.12125"
       y="92.441254" />
    <rect
       style="opacity:1;fill:none;fill-opacity:1;fill-rule:evenodd;stroke:#000000;stroke-width:0.61000001;stroke-linecap:round;stroke-linejoin:round;stroke-miterlimit:4;stroke-dasharray:none;stroke-dashoffset:0;stroke-opacity:1;paint-order:normal"
       id="rect826"
       width="103.20756"
       height="44.921249"
       x="182.655"
       y="114.345" />
  </g>
  <path
     style="color:#000000;font-style:normal;font-variant:normal;font-weight:normal;font-stretch:normal;font-size:medium;line-height:normal;font-family:sans-serif;font-variant-ligatures:normal;font-variant-position:normal;font-variant-caps:normal;font-variant-numeric:normal;font-variant-alternates:normal;font-feature-settings:normal;text-indent:0;text-align:start;text-decoration:none;text-decoration-line:none;text-decoration-style:solid;text-decoration-color:#000000;letter-spacing:normal;word-spacing:normal;text-transform:none;writing-mode:lr-tb;direction:ltr;text-orientation:mixed;dominant-baseline:auto;baseline-shift:baseline;text-anchor:start;white-space:normal;shape-padding:0;clip-rule:nonzero;display:inline;overflow:visible;visibility:visible;opacity:1;isolation:auto;mix-blend-mode:normal;color-interpolation:sRGB;color-interpolation-filters:linearRGB;solid-color:#000000;solid-opacity:1;vector-effect:none;fill:#51588a;fill-opacity:1;fill-rule:evenodd;stroke:#000000;stroke-width:0.81;stroke-linecap:round;stroke-linejoin:round;stroke-miterlimit:4;stroke-dasharray:none;stroke-dashoffset:0;stroke-opacity:0.99497485;paint-order:normal;color-rendering:auto;image-rendering:auto;shape-rendering:auto;text-rendering:auto;enable-background:accumulate"
     d="m 233.95117,2.78125 c -2.88866,-0.2018292 -6.08334,0.5058991 -8.74219,2.3125 -2.6938,1.8303559 -4.76578,5.100253 -4.38281,9.105469 l -0.01,-0.21875 v 11.058593 h -24.79688 c -0.0273,1.8e-4 -0.0547,8.47e-4 -0.082,0.002 -5.14574,0.18466 -9.13018,1.926641 -11.75586,4.599609 -2.62216,2.669389 -3.82685,6.166501 -3.83008,9.570313 -0.30972,5.141358 -0.3088,10.777901 1.24414,15.636718 1.56539,4.897757 5.19484,9.134972 11.15821,9.90625 0.0984,0.0129 0.1976,0.01942 0.29687,0.01953 h 27.76563 v 4.839843 H 20.433594 C 15.462581,69.57934 11.373272,71.099343 8.5722656,73.771484 5.771259,76.443626 4.3547553,80.18021 4.3339844,84.134766 c -2.5e-6,0.002 -2.5e-6,0.0039 0,0.0059 L 4.0429688,190.31836 c -2.008e-4,0.0176 -2.008e-4,0.0351 0,0.0527 0.091178,4.53344 0.6565074,8.49638 3.0605468,11.47852 2.4040395,2.98214 6.4497774,4.34237 11.9140624,4.14258 l -0.08398,0.002 H 210.86914 c 0.0652,1e-4 0.13035,-0.003 0.19531,-0.008 4.38796,-0.37234 8.13985,-1.99813 10.75391,-4.50391 2.61405,-2.50578 4.05885,-5.993 3.58789,-9.60156 l 0.0195,0.29883 V 74.222656 h 27.02344 l -0.1543,-0.0059 c 6.8489,0.461131 13.30116,-5.04908 13.9375,-12.902344 0.003,-0.03121 0.005,-0.06246 0.006,-0.09375 l 0.32617,-8.144531 h 10.38867 l -0.15624,-0.0059 c 3.2567,0.221278 6.20455,-1.125872 8.24609,-3.271484 2.04154,-2.145611 3.26882,-5.054949 3.49023,-8.183594 0.004,-0.05395 0.006,-0.108019 0.006,-0.162109 v -6.3125 c -0.002,-3.335036 -2.17067,-5.961936 -4.74609,-7.595703 -2.57543,-1.633767 -5.69535,-2.50586 -8.69727,-2.50586 h -28.36328 c 0.0452,-0.47919 0.21528,-0.846948 0.22656,-1.355468 1.9e-4,-0.01693 1.9e-4,-0.03385 0,-0.05078 V 13.98039 c -1.6e-4,-0.02801 -8.2e-4,-0.05601 -0.002,-0.08399 0,0 -0.077,-2.903416 -1.80664,-5.7578121 -1.71052,-2.8229073 -5.40621,-5.577114 -11.19922,-5.3574219 z m -0.24414,4.5859375 c 0.0974,0.00816 0.19529,0.010121 0.29297,0.00586 4.51896,-0.2219858 6.16154,1.4256744 7.20898,3.1542975 1.04745,1.728622 1.14063,3.537109 1.14063,3.537109 v 9.517578 c -0.0137,0.619238 -0.15906,0.949165 -0.22461,1.457031 H 225.42578 V 13.980469 c 2e-4,-0.07368 -0.003,-0.147337 -0.01,-0.220703 -0.22511,-2.354254 0.72329,-3.723974 2.38281,-4.8515629 1.65951,-1.1275888 4.09913,-1.6830875 5.9082,-1.5410156 z M 196.09375,29.650391 h 24.72266 v 1.457031 c -1.62595,0.359912 -3.18311,0.90353 -4.55469,1.779297 -2.50456,1.599187 -4.35547,4.405772 -4.35547,7.824219 -3.2e-4,0.02214 -3.2e-4,0.04427 0,0.06641 0.0923,3.172386 0.86582,6.157743 3.08594,8.341797 1.4242,1.401071 3.46947,2.275896 5.82422,2.955078 v 8.08789 h -27.54297 c -4.18716,-0.56855 -6.06021,-2.880047 -7.28711,-6.71875 -1.23497,-3.863939 -1.33431,-9.134772 -1.03125,-14.078125 0.003,-0.0468 0.005,-0.0937 0.006,-0.140625 0,-2.338727 0.79436,-4.607217 2.50976,-6.353515 1.71381,-1.744674 4.40988,-3.067227 8.62305,-3.220703 z m 29.33203,0 h 14.38867 c -0.91125,0.57988 -2.043,0.958984 -3.69922,0.958984 h -10.68945 z m 20.26953,0 h 29.40039 c 2.05093,0 4.49915,0.69201 6.22852,1.789062 1.72936,1.097053 2.60461,2.368931 2.60547,3.703125 v 6.16211 c -0.15315,2.110744 -1.0032,4.030677 -2.22657,5.316406 -1.22659,1.289121 -2.73173,1.976125 -4.59374,1.849609 -0.052,-0.0031 -0.10414,-0.0044 -0.15626,-0.0039 h -10.19921 c -0.3047,-1.995197 -1.15447,-3.964778 -2.48633,-5.677735 -2.26286,-2.910331 -6.05181,-5.132974 -10.57031,-4.666015 v 0 c -7.22433,-0.896375 -11.8517,4.520952 -12.01758,9.941447 -0.001,0.02342 -0.002,0.04686 -0.002,0.07031 v 0.332031 h -16.10937 c -0.0599,-0.0079 -0.0835,-0.02509 -0.14258,-0.0332 V 35.21875 h 10.68945 c 2.83498,0 5.62264,-0.714113 7.66797,-2.701172 0.8082,-0.785174 1.41372,-1.774128 1.91211,-2.867187 z m -24.8789,6.279297 v 11.441406 c -1.18343,-0.45274 -2.02022,-0.976731 -2.58985,-1.53711 -1.14329,-1.124722 -1.62523,-2.610853 -1.70508,-5.148437 0.008,-1.906695 0.74632,-2.969454 2.22266,-3.912109 0.55735,-0.355872 1.31796,-0.601442 2.07227,-0.84375 z m 32.83398,6.773437 c 0,0 -0.17349,0.01781 0,4.1e-5 2.80992,-0.290388 5.50022,1.017247 6.97656,2.916016 0.69475,0.89354 1.11493,1.906447 1.36719,2.847656 h -15.70508 v -0.269531 c 0,-2.573732 2.62188,-6.082199 7.36133,-5.494141 z m -28.22461,10.373047 h 16.25195 v 0.521484 c -0.16694,2.996433 -0.92901,4.466388 -2.13085,5.367188 -1.20523,0.903334 -3.32241,1.405067 -6.63086,1.201172 -0.0475,-0.0028 -0.095,-0.0041 -0.14258,-0.0039 h -7.34766 z m 20.86328,0 h 15.66016 l -0.31445,7.876953 c -0.45474,5.54673 -4.85298,8.947204 -9.0293,8.666016 -0.052,-0.0037 -0.10411,-0.0057 -0.15625,-0.0059 h -27.02344 v -4.839843 h 7.34766 l -0.14063,-0.0059 c 3.86474,0.238178 7.16606,-0.22927 9.67969,-2.113281 2.51363,-1.884012 3.76545,-5.019554 3.97266,-8.826172 0.002,-0.04162 0.004,-0.08331 0.004,-0.125 z M 20.402344,74.222656 c 0.0052,1.8e-5 0.01042,1.8e-5 0.01563,0 H 220.81641 V 192.17969 c 2e-5,0.0999 0.007,0.19975 0.0195,0.29883 0.27154,2.08057 -0.47585,4.0163 -2.20703,5.67578 -1.72352,1.65212 -4.45785,2.92615 -7.91211,3.22851 H 18.933594 c -0.028,1.6e-4 -0.056,8.2e-4 -0.08398,0.002 -4.689133,0.17145 -6.849337,-0.80655 -8.15625,-2.42774 -1.3066738,-1.62089 -1.9573132,-4.52481 -2.0410152,-8.67578 -1.53e-5,-7.6e-4 1.52e-5,-0.001 0,-0.002 L 8.9433594,84.158203 v -0.0059 c 0.016581,-2.896583 0.9839138,-5.302326 2.8105466,-7.044922 1.827942,-1.743844 4.610009,-2.912339 8.648438,-2.884766 z"
     id="path830"
     inkscape:connector-curvature="0"
     sodipodi:nodetypes="cccccccscscccccsccccscccccccccccccccsccccscccccccccccccccccccccccsccccccscccccccscccsccccccccccccccccssccccscscccsccscccccccccccccccccccsccccccccccccsccccscc" />
  <g
     inkscape:groupmode="layer"
     id="layer2"
     inkscape:label="sharp"
     style="display:inline" />
  <path
     style="display:inline;opacity:1;fill:#225f97;fill-opacity:1;fill-rule:evenodd;stroke:#061019;stroke-width:0.57884157;stroke-linecap:round;stroke-linejoin:round;stroke-miterlimit:4;stroke-dasharray:none;stroke-dashoffset:0;stroke-opacity:1;paint-order:normal"
     d="m 22.314421,68.935746 v 6.434133 l 1.277982,0.0027 v -6.43694 z"
     id="path897"
     inkscape:connector-curvature="0"
     sodipodi:nodetypes="ccccc" />
  <path
     style="display:inline;opacity:1;fill:#225f97;fill-opacity:1;fill-rule:evenodd;stroke:#061019;stroke-width:0.57828075;stroke-linecap:round;stroke-linejoin:round;stroke-miterlimit:4;stroke-dasharray:none;stroke-dashoffset:0;stroke-opacity:1;paint-order:normal"
     d="M 9.5948626,83.729756 H 3.1760003 l -0.00286,1.278546 H 9.594817 Z"
     id="path897-8"
     inkscape:connector-curvature="0"
     sodipodi:nodetypes="ccccc" />
  <path
     style="display:inline;opacity:1;fill:#225f97;fill-opacity:1;fill-rule:evenodd;stroke:#061019;stroke-width:0.57828295;stroke-linecap:round;stroke-linejoin:round;stroke-miterlimit:4;stroke-dasharray:none;stroke-dashoffset:0;stroke-opacity:1;paint-order:normal"
     d="m 9.2868414,186.55438 h -6.41892 l -0.00278,1.27855 h 6.4217172 z"
     id="path897-8-9"
     inkscape:connector-curvature="0"
     sodipodi:nodetypes="ccccc" />
  <path
     style="display:inline;opacity:1;fill:#225f97;fill-opacity:1;fill-rule:evenodd;stroke:#061019;stroke-width:0.57828289;stroke-linecap:round;stroke-linejoin:round;stroke-miterlimit:4;stroke-dasharray:none;stroke-dashoffset:0;stroke-opacity:1;paint-order:normal"
     d="m 18.23433,207.19406 v -6.41892 l -1.278538,-0.002 v 6.42172 z"
     id="path897-8-8"
     inkscape:connector-curvature="0"
     sodipodi:nodetypes="ccccc" />
  <path
     style="display:inline;opacity:1;fill:#225f97;fill-opacity:1;fill-rule:evenodd;stroke:#061019;stroke-width:0.57827258;stroke-linecap:round;stroke-linejoin:round;stroke-miterlimit:4;stroke-dasharray:none;stroke-dashoffset:0;stroke-opacity:1;paint-order:normal"
     d="m 210.42163,207.24386 v -6.41864 l -1.27854,-0.003 v 6.42143 z"
     id="path897-8-3"
     inkscape:connector-curvature="0"
     sodipodi:nodetypes="ccccc" />
  <path
     style="display:inline;opacity:1;fill:#225f97;fill-opacity:1;fill-rule:evenodd;stroke:#061019;stroke-width:0.57884157;stroke-linecap:round;stroke-linejoin:round;stroke-miterlimit:4;stroke-dasharray:none;stroke-dashoffset:0;stroke-opacity:1;paint-order:normal"
     d="m 251.81101,69.047887 v 6.434133 l 1.27798,0.0027 v -6.43694 z"
     id="path897-5"
     inkscape:connector-curvature="0"
     sodipodi:nodetypes="ccccc" />
  <path
     style="display:inline;opacity:1;fill:#225f97;fill-opacity:1;fill-rule:evenodd;stroke:#061019;stroke-width:0.57884157;stroke-linecap:round;stroke-linejoin:round;stroke-miterlimit:4;stroke-dasharray:none;stroke-dashoffset:0;stroke-opacity:1;paint-order:normal"
     d="m 195.75226,24.12664 v 6.43413 l 1.27798,0.003 v -6.43694 z"
     id="path897-9"
     inkscape:connector-curvature="0"
     sodipodi:nodetypes="ccccc" />
  <path
     style="display:inline;opacity:1;fill:#225f97;fill-opacity:1;fill-rule:evenodd;stroke:#061019;stroke-width:0.57884157;stroke-linecap:round;stroke-linejoin:round;stroke-miterlimit:4;stroke-dasharray:none;stroke-dashoffset:0;stroke-opacity:1;paint-order:normal"
     d="m 194.63851,59.39539 v 6.43413 l 1.27798,0.003 v -6.43694 z"
     id="path897-92"
     inkscape:connector-curvature="0"
     sodipodi:nodetypes="ccccc" />
  <path
     style="display:inline;opacity:1;fill:#225f97;fill-opacity:1;fill-rule:evenodd;stroke:#061019;stroke-width:0.57884157;stroke-linecap:round;stroke-linejoin:round;stroke-miterlimit:4;stroke-dasharray:none;stroke-dashoffset:0;stroke-opacity:1;paint-order:normal"
     d="m 275.94226,47.653169 v 6.43413 l 1.27798,0.003 v -6.43694 z"
     id="path897-3"
     inkscape:connector-curvature="0"
     sodipodi:nodetypes="ccccc" />
  <path
     style="display:inline;opacity:1;fill:#225f97;fill-opacity:1;fill-rule:evenodd;stroke:#061019;stroke-width:0.57884157;stroke-linecap:round;stroke-linejoin:round;stroke-miterlimit:4;stroke-dasharray:none;stroke-dashoffset:0;stroke-opacity:1;paint-order:normal"
     d="m 276.68476,24.180243 v 6.43413 l 1.27798,0.003 v -6.43694 z"
     id="path897-35"
     inkscape:connector-curvature="0"
     sodipodi:nodetypes="ccccc" />
  <path
     style="display:inline;opacity:1;fill:#225f97;fill-opacity:1;fill-rule:evenodd;stroke:#061019;stroke-width:0.57884157;stroke-linecap:round;stroke-linejoin:round;stroke-miterlimit:4;stroke-dasharray:none;stroke-dashoffset:0;stroke-opacity:1;paint-order:normal"
     d="m 289.26094,42.29871 h -6.43414 l -0.003,1.27798 h 6.43694 z"
     id="path897-1"
     inkscape:connector-curvature="0"
     sodipodi:nodetypes="ccccc" />
  <path
     style="display:inline;opacity:1;fill:#225f97;fill-opacity:1;fill-rule:evenodd;stroke:#061019;stroke-width:0.57884157;stroke-linecap:round;stroke-linejoin:round;stroke-miterlimit:4;stroke-dasharray:none;stroke-dashoffset:0;stroke-opacity:1;paint-order:normal"
     d="m 282.9195,37.26545 h 6.43412 l 0.003,-1.27798 h -6.43694 z"
     id="path897-94"
     inkscape:connector-curvature="0"
     sodipodi:nodetypes="ccccc" />
  <path
     style="display:inline;opacity:1;fill:#225f97;fill-opacity:1;fill-rule:evenodd;stroke:#061019;stroke-width:0.57884157;stroke-linecap:round;stroke-linejoin:round;stroke-miterlimit:4;stroke-dasharray:none;stroke-dashoffset:0;stroke-opacity:1;paint-order:normal"
     d="m 179.43644,40.204877 h 6.43412 l 0.003,-1.27798 h -6.43694 z"
     id="path897-4"
     inkscape:connector-curvature="0"
     sodipodi:nodetypes="ccccc" />
  <path
     style="display:inline;opacity:1;fill:#225f97;fill-opacity:1;fill-rule:evenodd;stroke:#061019;stroke-width:0.57884157;stroke-linecap:round;stroke-linejoin:round;stroke-miterlimit:4;stroke-dasharray:none;stroke-dashoffset:0;stroke-opacity:1;paint-order:normal"
     d="m 179.98756,52.528778 h 6.43413 l 0.003,-1.27798 h -6.43694 z"
     id="path897-0"
     inkscape:connector-curvature="0"
     sodipodi:nodetypes="ccccc" />
  <path
     style="display:inline;opacity:1;fill:#225f97;fill-opacity:1;fill-rule:evenodd;stroke:#061019;stroke-width:0.57884157;stroke-linecap:round;stroke-linejoin:round;stroke-miterlimit:4;stroke-dasharray:none;stroke-dashoffset:0;stroke-opacity:1;paint-order:normal"
     d="m 233.61976,59.299699 v 6.43413 l 1.27798,0.003 v -6.43694 z"
     id="path897-6"
     inkscape:connector-curvature="0"
     sodipodi:nodetypes="ccccc" />
  <path
     style="display:inline;opacity:1;fill:#225f97;fill-opacity:1;fill-rule:evenodd;stroke:#061019;stroke-width:0.57884157;stroke-linecap:round;stroke-linejoin:round;stroke-miterlimit:4;stroke-dasharray:none;stroke-dashoffset:0;stroke-opacity:1;paint-order:normal"
     d="m 234.73351,30.162331 v 6.43413 l 1.27798,0.003 v -6.43694 z"
     id="path897-30"
     inkscape:connector-curvature="0"
     sodipodi:nodetypes="ccccc" />
  <path
     style="display:inline;opacity:1;fill:#225f97;fill-opacity:1;fill-rule:evenodd;stroke:#061019;stroke-width:0.57884157;stroke-linecap:round;stroke-linejoin:round;stroke-miterlimit:4;stroke-dasharray:none;stroke-dashoffset:0;stroke-opacity:1;paint-order:normal"
     d="m 235.52961,1.9473313 v 6.43413 l 1.27798,0.003 v -6.43694 z"
     id="path897-17"
     inkscape:connector-curvature="0"
     sodipodi:nodetypes="ccccc" />
  <path
     style="display:inline;opacity:1;fill:#225f97;fill-opacity:1;fill-rule:evenodd;stroke:#061019;stroke-width:0.57884157;stroke-linecap:round;stroke-linejoin:round;stroke-miterlimit:4;stroke-dasharray:none;stroke-dashoffset:0;stroke-opacity:1;paint-order:normal"
     d="m 219.94478,189.84919 h 6.43413 l 0.003,-1.27798 h -6.43694 z"
     id="path897-09"
     inkscape:connector-curvature="0"
     sodipodi:nodetypes="ccccc" />
  <path
     style="display:inline;opacity:1;fill:#225f97;fill-opacity:1;fill-rule:evenodd;stroke:#061019;stroke-width:0.57884157;stroke-linecap:round;stroke-linejoin:round;stroke-miterlimit:4;stroke-dasharray:none;stroke-dashoffset:0;stroke-opacity:1;paint-order:normal"
     d="m 219.90269,16.47545 h 6.43413 l 0.003,-1.27798 h -6.43694 z"
     id="path897-63"
     inkscape:connector-curvature="0"
     sodipodi:nodetypes="ccccc" />
  <path
     style="display:inline;opacity:1;fill:#225f97;fill-opacity:1;fill-rule:evenodd;stroke:#061019;stroke-width:0.57884157;stroke-linecap:round;stroke-linejoin:round;stroke-miterlimit:4;stroke-dasharray:none;stroke-dashoffset:0;stroke-opacity:1;paint-order:normal"
     d="m 247.9144,13.945931 h -6.43413 l -0.003,1.27799 h 6.43694 z"
     id="path897-2"
     inkscape:connector-curvature="0"
     sodipodi:nodetypes="ccccc" />
  <path
     style="display:inline;opacity:1;fill:#225f97;fill-opacity:1;fill-rule:evenodd;stroke:#061019;stroke-width:0.57884157;stroke-linecap:round;stroke-linejoin:round;stroke-miterlimit:4;stroke-dasharray:none;stroke-dashoffset:0;stroke-opacity:1;paint-order:normal"
     d="m 261.0087,47.226789 h 6.43412 l 0.003,-1.27798 h -6.43694 z"
     id="path897-03"
     inkscape:connector-curvature="0"
     sodipodi:nodetypes="ccccc" />
  <path
     style="display:inline;opacity:1;fill:#225f97;fill-opacity:1;fill-rule:evenodd;stroke:#061019;stroke-width:0.57884157;stroke-linecap:round;stroke-linejoin:round;stroke-miterlimit:4;stroke-dasharray:none;stroke-dashoffset:0;stroke-opacity:1;paint-order:normal"
     d="m 240.85101,47.364605 h 6.43413 l 0.003,-1.27798 h -6.43695 z"
     id="path897-27"
     inkscape:connector-curvature="0"
     sodipodi:nodetypes="ccccc" />
  <path
     style="display:inline;opacity:1;fill:#225f97;fill-opacity:1;fill-rule:evenodd;stroke:#061019;stroke-width:0.57884157;stroke-linecap:round;stroke-linejoin:round;stroke-miterlimit:4;stroke-dasharray:none;stroke-dashoffset:0;stroke-opacity:1;paint-order:normal"
     d="m 260.74018,61.3967 h 6.43413 l 0.003,-1.27798 h -6.43695 z"
     id="path897-46"
     inkscape:connector-curvature="0"
     sodipodi:nodetypes="ccccc" />
  <path
     style="display:inline;opacity:1;fill:#225f97;fill-opacity:1;fill-rule:evenodd;stroke:#061019;stroke-width:0.57884157;stroke-linecap:round;stroke-linejoin:round;stroke-miterlimit:4;stroke-dasharray:none;stroke-dashoffset:0;stroke-opacity:1;paint-order:normal"
     d="m 232.80802,8.3840543 v -6.434133 l -1.27798,-0.0027 v 6.43694 z"
     id="path897-61"
     inkscape:connector-curvature="0"
     sodipodi:nodetypes="ccccc" />
  <path
     style="display:inline;opacity:1;fill:#225f97;fill-opacity:1;fill-rule:evenodd;stroke:#061019;stroke-width:0.57884157;stroke-linecap:round;stroke-linejoin:round;stroke-miterlimit:4;stroke-dasharray:none;stroke-dashoffset:0;stroke-opacity:1;paint-order:normal"
     d="m 254.78101,37.078302 v 6.43413 l 1.27798,0.003 v -6.43694 z"
     id="path897-095"
     inkscape:connector-curvature="0"
     sodipodi:nodetypes="ccccc" />
  <path
     style="display:inline;opacity:1;fill:#225f97;fill-opacity:1;fill-rule:evenodd;stroke:#061019;stroke-width:0.57884157;stroke-linecap:round;stroke-linejoin:round;stroke-miterlimit:4;stroke-dasharray:none;stroke-dashoffset:0;stroke-opacity:1;paint-order:normal"
     d="m 251.20629,37.049408 v 6.434133 l 1.27798,0.0027 v -6.43694 z"
     id="path897-42"
     inkscape:connector-curvature="0"
     sodipodi:nodetypes="ccccc" />
  <path
     style="display:inline;opacity:1;fill:#225f97;fill-opacity:1;fill-rule:evenodd;stroke:#061019;stroke-width:0.57884157;stroke-linecap:round;stroke-linejoin:round;stroke-miterlimit:4;stroke-dasharray:none;stroke-dashoffset:0;stroke-opacity:1;paint-order:normal"
     d="m 217.80106,37.53621 h -6.43412 l -0.003,1.27799 h 6.43694 z"
     id="path897-39"
     inkscape:connector-curvature="0"
     sodipodi:nodetypes="ccccc" />
  <path
     style="display:inline;opacity:1;fill:#225f97;fill-opacity:1;fill-rule:evenodd;stroke:#061019;stroke-width:0.57884157;stroke-linecap:round;stroke-linejoin:round;stroke-miterlimit:4;stroke-dasharray:none;stroke-dashoffset:0;stroke-opacity:1;paint-order:normal"
     d="m 217.42961,41.18476 h -6.43413 l -0.003,1.27798 h 6.43694 z"
     id="path897-7"
     inkscape:connector-curvature="0"
     sodipodi:nodetypes="ccccc" />
  <path
     sodipodi:type="inkscape:offset"
     inkscape:radius="0"
     inkscape:original="M 227.75 3.3300781 C 224.84235 3.1144653 220.71926 6.9742549 220.7168 10.496094 L 220.70703 25.375 L 225.73828 25.375 L 225.79492 12.837891 C 225.79492 8.4310898 228.84644 7.1894531 230.78125 7.1894531 L 237.66992 7.1894531 C 241.17391 7.1894531 242.37461 10.61446 242.38672 12.699219 L 242.45898 25.375 L 247.03906 25.375 L 247.03906 10.632812 C 247.03906 7.8359042 243.01562 3.3300781 239.87305 3.3300781 L 227.75 3.3300781 z M 247.03906 25.375 L 247.03906 25.650391 L 247.03906 26.890625 C 247.03906 27.896209 246.73076 28.93423 246.19922 29.921875 L 279.55469 29.921875 C 281.27721 29.921875 283.68992 32.488263 283.69141 35.019531 L 283.69531 42.873047 C 283.85482 45.833325 280.88429 48.523437 278.86523 48.523438 L 266.46484 48.523438 L 266.46484 52.792969 L 279.9668 52.792969 C 283.80452 52.792969 288.50977 47.503535 288.50977 44.113281 L 288.50977 33.779297 C 288.50977 29.460823 283.32463 25.375 279.2793 25.375 L 247.03906 25.375 z M 266.46484 52.792969 L 261.78125 52.792969 L 261.78125 60.234375 C 261.78125 66.781077 256.51888 69.740234 253.09961 69.740234 L 225.53906 69.740234 L 225.51758 74.287109 L 253.78906 74.287109 C 261.20824 74.287109 266.46484 68.081621 266.46484 61.75 L 266.46484 52.792969 z M 225.51758 74.287109 L 220.67383 74.287109 L 220.58984 194.15625 C 220.58984 199.69563 215.56415 201.46355 213.14453 201.4668 L 16.257812 201.72461 C 12.318701 201.72461 8.8183594 197.95517 8.8183594 194.29297 L 8.8183594 82.279297 C 8.8183594 78.876896 13.147716 74.287109 19.013672 74.287109 L 220.67383 74.287109 L 220.67578 69.740234 L 21.769531 69.740234 C 11.801161 69.740234 4.2714844 74.627152 4.2714844 81.726562 L 4.2714844 195.39453 C 4.2714844 201.13982 9.0546144 205.8621 14.054688 205.85742 L 212.86914 205.67188 C 219.41154 205.9332 224.94894 200.31694 224.9668 196.35938 L 225.51758 74.287109 z M 220.67578 69.740234 L 225.53906 69.740234 L 225.5625 64.175781 L 220.67969 64.197266 L 220.67578 69.740234 z M 220.67969 64.197266 L 220.68359 60.095703 L 191.78906 60.095703 C 187.41391 60.095703 184.76172 55.539063 184.76172 52.792969 L 184.76172 37.5 C 184.76172 33.863075 187.57636 29.921875 192.47852 29.921875 L 220.70312 29.921875 L 220.70703 25.375 L 192.06445 25.375 C 183.95182 25.375 180.49023 33.186396 180.49023 36.949219 L 180.49023 53.482422 C 180.49023 60.121373 187.25415 64.338101 190.55078 64.324219 L 220.67969 64.197266 z M 220.70312 29.921875 L 220.70312 30.886719 L 225.71289 30.886719 L 225.71875 29.921875 L 220.70312 29.921875 z M 225.71875 29.921875 L 240.05078 29.921875 C 241.42457 28.996157 242.46484 27.582442 242.46484 26.339844 L 242.45898 25.375 L 225.73828 25.375 L 225.71875 29.921875 z M 240.05078 29.921875 C 239.23967 30.468437 238.34288 30.886719 237.39453 30.886719 L 225.71289 30.886719 L 225.69336 35.158203 L 237.39453 35.158203 C 241.01765 35.351747 244.61645 32.862784 246.19922 29.921875 L 240.05078 29.921875 z M 225.69336 35.158203 L 221.82422 35.158203 C 221.49989 35.158203 221.0957 35.303848 220.70117 35.4375 L 220.69141 48.130859 C 221.30229 48.334302 221.9301 48.523438 222.65234 48.523438 L 225.63477 48.523438 L 225.69336 35.158203 z M 225.63477 48.523438 L 225.61523 52.792969 L 241.94141 52.792969 L 241.94141 48.523438 L 225.63477 48.523438 z M 241.94141 48.523438 L 246.33594 48.523438 L 246.375 47.003906 C 246.375 43.470077 249.57736 42.336724 250.62109 42.597656 L 256.82031 42.597656 C 259.79578 42.597656 261.78125 45.473613 261.78125 47.558594 L 261.78125 48.523438 L 266.46484 48.523438 L 266.46484 47.144531 C 266.46484 42.60652 262.75216 38.326172 258.06055 38.326172 L 248.2793 38.326172 C 244.92194 38.326172 241.94141 42.563395 241.94141 45.492188 L 241.94141 48.523438 z M 261.78125 48.523438 L 246.33594 48.523438 L 246.22656 52.792969 L 261.78125 52.792969 L 261.78125 48.523438 z M 246.22656 52.792969 L 241.94141 52.792969 L 241.94141 54.722656 C 241.94141 57.699579 238.81917 60.095703 236.8418 60.095703 L 225.58203 60.095703 L 225.5625 64.175781 L 237.80664 64.125 C 241.80033 64.125 246.16602 61.496589 246.16602 55.138672 L 246.22656 52.792969 z M 225.58203 60.095703 L 225.61523 52.792969 L 220.68945 52.792969 L 220.68359 60.095703 L 225.58203 60.095703 z M 220.68945 52.792969 L 220.69141 48.660156 L 220.69141 48.130859 C 218.24564 47.316348 216.71484 45.174768 216.71484 43.423828 L 216.71484 39.841797 C 216.71484 37.83546 218.90845 36.044815 220.70117 35.4375 L 220.70312 30.886719 L 220.44727 30.886719 C 216.90094 30.886719 212.00781 35.605853 212.00781 37.638672 L 211.95898 44.113281 C 211.95898 48.792283 218.07474 52.792969 220.17188 52.792969 L 220.68945 52.792969 z "
     xlink:href="#path1134"
     style="display:none;opacity:1;fill:#225f97;fill-opacity:1;fill-rule:evenodd;stroke:#061019;stroke-width:0.69999999;stroke-linecap:round;stroke-linejoin:round;stroke-miterlimit:4;stroke-dasharray:none;stroke-dashoffset:0;stroke-opacity:1;paint-order:normal"
     id="path1162"
     inkscape:href="#path1134"
     d="m 227.75,3.3300781 c -2.90765,-0.2156128 -7.03074,3.6441768 -7.0332,7.1660159 l -0.01,14.878906 h 5.03125 l 0.0566,-12.537109 c 0,-4.4068012 3.05152,-5.6484379 4.98633,-5.6484379 h 6.88867 c 3.50399,0 4.70469,3.4250069 4.7168,5.5097659 l 0.0723,12.675781 h 4.58008 V 10.632812 c 0,-2.7969078 -4.02344,-7.3027339 -7.16601,-7.3027339 z M 247.03906,25.375 v 0.275391 1.240234 c 0,1.005584 -0.3083,2.043605 -0.83984,3.03125 h 33.35547 c 1.72252,0 4.13523,2.566388 4.13672,5.097656 l 0.004,7.853516 c 0.15951,2.960278 -2.81102,5.65039 -4.83008,5.650391 h -12.40039 v 4.269531 h 13.50196 c 3.83772,0 8.54297,-5.289434 8.54297,-8.679688 V 33.779297 c 0,-4.318474 -5.18514,-8.404297 -9.23047,-8.404297 z m 19.42578,27.417969 h -4.68359 v 7.441406 c 0,6.546702 -5.26237,9.505859 -8.68164,9.505859 h -27.56055 l -0.0215,4.546875 h 28.27148 c 7.41918,0 12.67578,-6.205488 12.67578,-12.537109 z m -40.94726,21.49414 h -4.84375 l -0.084,119.869141 c 0,5.53938 -5.02569,7.3073 -7.44531,7.31055 l -196.886718,0.25781 c -3.939111,0 -7.4394526,-3.76944 -7.4394526,-7.43164 V 82.279297 c 0,-3.402401 4.3293566,-7.992188 10.1953126,-7.992188 H 220.67383 l 0.002,-4.546875 H 21.769531 c -9.96837,0 -17.4980466,4.886918 -17.4980466,11.986328 V 195.39453 c 0,5.74529 4.78313,10.46757 9.7832036,10.46289 l 198.814452,-0.18554 c 6.5424,0.26132 12.0798,-5.35494 12.09766,-9.3125 z m -4.8418,-4.546875 h 4.86328 l 0.0234,-5.564453 -4.88281,0.02148 z m 0.004,-5.542968 0.004,-4.101563 h -28.89453 c -4.37515,0 -7.02734,-4.55664 -7.02734,-7.302734 V 37.5 c 0,-3.636925 2.81464,-7.578125 7.7168,-7.578125 h 28.2246 l 0.004,-4.546875 h -28.64258 c -8.11263,0 -11.57422,7.811396 -11.57422,11.574219 v 16.533203 c 0,6.638951 6.76392,10.855679 10.06055,10.841797 z m 0.0234,-34.275391 v 0.964844 h 5.00977 l 0.006,-0.964844 z m 5.01563,0 h 14.33203 c 1.37379,-0.925718 2.41406,-2.339433 2.41406,-3.582031 l -0.006,-0.964844 h -16.7207 z m 14.33203,0 c -0.81111,0.546562 -1.7079,0.964844 -2.65625,0.964844 h -11.68164 l -0.0195,4.271484 h 11.70117 c 3.62312,0.193544 7.22192,-2.295419 8.80469,-5.236328 z m -14.35742,5.236328 h -3.86914 c -0.32433,0 -0.72852,0.145645 -1.12305,0.279297 l -0.01,12.693359 c 0.61088,0.203443 1.23869,0.392579 1.96093,0.392579 h 2.98243 z m -0.0586,13.365235 -0.0195,4.269531 h 16.32618 v -4.269531 z m 16.30664,0 h 4.39453 l 0.0391,-1.519532 c 0,-3.533829 3.20236,-4.667182 4.24609,-4.40625 h 6.19922 c 2.97547,0 4.96094,2.875957 4.96094,4.960938 v 0.964844 h 4.68359 v -1.378907 c 0,-4.538011 -3.71268,-8.818359 -8.40429,-8.818359 h -9.78125 c -3.35736,0 -6.33789,4.237223 -6.33789,7.166016 z m 19.83984,0 h -15.44531 l -0.10938,4.269531 h 15.55469 z m -15.55469,4.269531 h -4.28515 v 1.929687 c 0,2.976923 -3.12224,5.373047 -5.09961,5.373047 h -11.25977 l -0.0195,4.080078 12.24414,-0.05078 c 3.99369,0 8.35938,-2.628411 8.35938,-8.986328 z m -20.64453,7.302734 0.0332,-7.302734 h -4.92578 l -0.006,7.302734 z m -4.89258,-7.302734 0.002,-4.132813 v -0.529297 c -2.44577,-0.814511 -3.97657,-2.956091 -3.97657,-4.707031 v -3.582031 c 0,-2.006337 2.19361,-3.796982 3.98633,-4.404297 l 0.002,-4.550781 h -0.25585 c -3.54633,0 -8.43946,4.719134 -8.43946,6.751953 l -0.0488,6.474609 c 0,4.679002 6.11576,8.679688 8.2129,8.679688 z" />
  <path
     id="path1134"
     style="display:none;opacity:1;fill:#225f97;fill-opacity:1;fill-rule:evenodd;stroke:#061019;stroke-width:0.69999999;stroke-linecap:round;stroke-linejoin:round;stroke-miterlimit:4;stroke-dasharray:none;stroke-dashoffset:0;stroke-opacity:1;paint-order:normal"
     d="M 19.013547,74.287366 H 253.78952 c 7.41918,0 12.6757,-6.206296 12.6757,-12.537917 V 47.14484 c 0,-4.538011 -3.71293,-8.817876 -8.40454,-8.817876 h -9.78233 c -3.35736,0 -6.33786,4.235732 -6.33786,7.164525 v 9.231214 c 0,2.976923 -3.12046,5.373395 -5.09783,5.373395 h -45.05384 c -4.37515,0 -7.02675,-4.556211 -7.02675,-7.302305 V 37.500288 c 0,-3.636925 2.81349,-7.577863 7.71565,-7.577863 h 87.07653 c 1.72252,0 4.13488,2.566565 4.13637,5.097833 l 0.005,7.853508 c 0.15951,2.960278 -2.8114,5.648868 -4.83046,5.648868 h -56.21377 c -3.61383,0 -5.93683,-2.909558 -5.93683,-5.097835 v -3.582263 c 0,-2.447872 3.31206,-4.684498 5.11016,-4.684498 h 15.56906 c 4.83987,0.258542 9.64439,-4.266849 9.64439,-8.266759 V 25.651265 10.633319 c 0,-2.7969083 -4.02199,-7.3023046 -7.16456,-7.3023046 h -12.12458 c -2.90765,-0.2156128 -7.02929,3.6426827 -7.03175,7.1645216 l -0.0265,38.164951 -0.10118,145.494993 c 0,5.53938 -5.02527,7.30895 -7.44489,7.3122 l -196.886941,0.25604 c -3.939112,0 -7.4399003,-3.76836 -7.4399003,-7.43056 V 82.278569 c 0,-3.402401 4.3297223,-7.991203 10.1956783,-7.991203 z M 4.2711606,81.727452 V 195.3954 c 0,5.74529 4.7825073,10.46674 9.7825804,10.46206 l 198.815519,-0.18621 c 6.5424,0.26132 12.0796,-5.35458 12.09746,-9.31214 l 0.82811,-183.521437 c 0,-4.4068008 3.05074,-5.6488373 4.98555,-5.6488373 h 6.88897 c 3.50399,0 4.70439,3.4254263 4.7165,5.5101853 l 0.0793,13.641295 c 0,1.976252 -2.51682,4.546564 -5.07141,4.546564 h -16.94681 c -3.54633,0 -8.43842,4.719888 -8.43842,6.752707 l -0.0494,6.474451 c 0,4.679002 6.11511,8.679755 8.21224,8.679755 h 59.79616 c 3.83772,0 8.5423,-5.289844 8.5423,-8.680098 V 33.780246 c 0,-4.318474 -5.18586,-8.40454 -9.23119,-8.40454 h -87.21424 c -8.11263,0 -11.57354,7.810641 -11.57354,11.573464 v 16.53352 c 0,6.638951 6.7629,10.856088 10.05953,10.842206 l 47.25681,-0.198976 c 3.99369,0 8.3584,-2.629612 8.3584,-8.987529 l 0.20857,-8.134232 c 0,-3.533829 3.20267,-4.666974 4.2464,-4.406042 h 6.20007 c 2.97547,0 4.96002,2.875076 4.96002,4.960057 v 12.675699 c 0,6.546702 -5.26083,9.506772 -8.6801,9.506772 l -231.331406,10e-7 c -9.96837,0 -17.4979734,4.887395 -17.4979734,11.986806 z"
     inkscape:connector-curvature="0"
     sodipodi:nodetypes="ssssssssssssssccssssscscssccccccsssssscscssccssccsssssssssccccssssss" />
  <path
     id="path1220"
     style="display:inline;opacity:1;fill:#225f97;fill-opacity:1;fill-rule:evenodd;stroke:#000000;stroke-width:0.70999998;stroke-linecap:round;stroke-linejoin:round;stroke-miterlimit:4;stroke-dasharray:none;stroke-dashoffset:0;stroke-opacity:1;paint-order:normal"
     d="m 220.81641,74.222654 h 4.60934 m -4.60955,-4.60933 4.60958,-8.5e-5 m -4.60958,-4.839758 4.60958,-8.5e-5 m -4.60937,-4.611285 4.60937,5e-6 m -4.60937,-30.511725 h 4.60937 m -4.60961,-4.611329 h 4.60961 m 16.69922,0 4.60767,-8.1e-5 m -6.91822,4.61141 h 5.88086 m -24.8789,6.279298 4.60933,-0.710938 m -4.60933,-4.111329 4.60937,-0.498046 m -4.60937,21.464846 4.60937,1.001948 m -4.60937,-5.705075 4.75191,1.095745 m 36.3809,4.60933 4.61534,-4e-5 m -4.57042,-4.609293 4.75978,-3.4e-5 m -25.07619,4.609367 h 4.61133 m -4.61137,-4.60933 4.61137,-3e-6"
     inkscape:connector-curvature="0" />
  <path
     style="display:inline;opacity:1;fill:#225f97;fill-opacity:1;fill-rule:evenodd;stroke:#061019;stroke-width:0.57884157;stroke-linecap:round;stroke-linejoin:round;stroke-miterlimit:4;stroke-dasharray:none;stroke-dashoffset:0;stroke-opacity:1;paint-order:normal"
     d="m 219.53843,46.379593 v 6.43413 l 1.27798,0.003 v -6.43694 z"
     id="path897-92-2"
     inkscape:connector-curvature="0"
     sodipodi:nodetypes="ccccc" />
  <path
     style="display:inline;opacity:1;fill:#225f97;fill-opacity:1;fill-rule:evenodd;stroke:#061019;stroke-width:0.57884157;stroke-linecap:round;stroke-linejoin:round;stroke-miterlimit:4;stroke-dasharray:none;stroke-dashoffset:0;stroke-opacity:1;paint-order:normal"
     d="m 219.88351,30.43768 v 6.43414 l 1.27798,0.003 v -6.43695 z"
     id="path897-92-9"
     inkscape:connector-curvature="0"
     sodipodi:nodetypes="ccccc" />
</svg>
