<?xml version="1.0" encoding="UTF-8" standalone="no"?>
<!-- Created with Inkscape (http://www.inkscape.org/) -->

<svg
   xmlns:dc="http://purl.org/dc/elements/1.1/"
   xmlns:cc="http://creativecommons.org/ns#"
   xmlns:rdf="http://www.w3.org/1999/02/22-rdf-syntax-ns#"
   xmlns:svg="http://www.w3.org/2000/svg"
   xmlns="http://www.w3.org/2000/svg"
   xmlns:sodipodi="http://sodipodi.sourceforge.net/DTD/sodipodi-0.dtd"
   xmlns:inkscape="http://www.inkscape.org/namespaces/inkscape"
   id="svg8"
   version="1.1"
   viewBox="0 0 297 210"
   height="210mm"
   width="297mm"
   inkscape:version="0.92.4 (5da689c313, 2019-01-14)"
   sodipodi:docname="rysunek.svg">
  <defs
     id="defs2">
    <inkscape:perspective
       sodipodi:type="inkscape:persp3d"
       inkscape:vp_x="0 : 105 : 1"
       inkscape:vp_y="0 : 1000 : 0"
       inkscape:vp_z="297 : 105 : 1"
       inkscape:persp3d-origin="148.5 : 70 : 1"
       id="perspective2849" />
    <meshgradient
       inkscape:collect="always"
       id="meshgradient839"
       gradientUnits="userSpaceOnUse"
       x="0"
       y="86.501251">
      <meshrow
         id="meshrow2529">
        <meshpatch
           id="meshpatch2531">
          <stop
             path="c 99.495,0  198.99,0  298.485,0"
             style="stop-color:#ffffff;stop-opacity:1"
             id="stop2533" />
          <stop
             path="c 0,70.6612  0,141.322  0,211.984"
             style="stop-color:#d9dcde;stop-opacity:1"
             id="stop2535" />
          <stop
             path="c -99.495,0  -198.99,0  -298.485,0"
             style="stop-color:#ffffff;stop-opacity:1"
             id="stop2537" />
          <stop
             path="c 0,-70.6612  0,-141.322  0,-211.984"
             style="stop-color:#d9dcde;stop-opacity:1"
             id="stop2539" />
        </meshpatch>
      </meshrow>
    </meshgradient>
  </defs>
  <sodipodi:namedview
     id="base"
     pagecolor="#ffffff"
     bordercolor="#666666"
     borderopacity="1.0"
     inkscape:pageopacity="0.0"
     inkscape:pageshadow="2"
     inkscape:zoom="0.71268238"
     inkscape:cx="561.25984"
     inkscape:cy="452.97638"
     inkscape:document-units="mm"
     inkscape:current-layer="layer1"
     showgrid="false"
     inkscape:snap-bbox="false"
     inkscape:snap-global="false"
     showguides="false"
     inkscape:window-width="1280"
     inkscape:window-height="961"
     inkscape:window-x="-8"
     inkscape:window-y="-8"
     inkscape:window-maximized="1" />
  <metadata
     id="metadata5">
    <rdf:RDF>
      <cc:Work
         rdf:about="">
        <dc:format>image/svg+xml</dc:format>
        <dc:type
           rdf:resource="http://purl.org/dc/dcmitype/StillImage" />
        <dc:title></dc:title>
      </cc:Work>
    </rdf:RDF>
  </metadata>
  <g
     inkscape:label="background"
     inkscape:groupmode="layer"
     id="layer1"
     transform="translate(0,-87)">
    <rect
       style="opacity:1;fill:url(#meshgradient839);fill-opacity:1;fill-rule:evenodd;stroke:#000000;stroke-width:0.46499997;stroke-linecap:round;stroke-linejoin:round;stroke-miterlimit:4;stroke-dasharray:0.2325, 0.2325;stroke-dashoffset:0;stroke-opacity:1"
       id="rect815"
       width="298.48502"
       height="211.98375"
       x="0"
       y="86.501251"
       ry="1.778553e-17" />
  </g>
  <g
     inkscape:groupmode="layer"
     id="layer2"
     inkscape:label="pipes">
    <path
       style="opacity:1;fill:none;fill-opacity:1;fill-rule:evenodd;stroke:#5385ac;stroke-width:5;stroke-linecap:round;stroke-linejoin:round;stroke-miterlimit:4;stroke-dasharray:none;stroke-dashoffset:0;stroke-opacity:1"
       d="m 17.0775,95.283754 v 83.902496 c 0,0 0.520856,10.2857 11.88,10.395 h 203.445 c 7.72433,0.57028 10.76625,-2.74546 10.76625,-11.50875 L 243.54,13.237505 c -0.719,-8.7196714 8.53875,-7.7962501 8.53875,-7.7962501 9.32454,-0.6229342 8.91,8.5387501 8.91,8.5387501 v 12.25125 c 0.41101,7.694319 -6.6825,7.796249 -6.6825,7.796249 h -8.91 c -10.76603,0.259335 -10.395,8.538751 -10.395,8.538751 v 14.47875 c -0.66917,8.311681 1.90059,10.02375 10.02375,11.1375 h 28.9575 c 0,0 7.42501,1.51379 7.79626,-7.79625 v -25.245 c 0.59885,-8.336973 -7.79626,-7.79625 -7.79626,-7.79625 H 230.175 c -9.38531,0.602005 -11.86741,1.427075 -11.50875,10.02375 v 30.07125 c -0.57185,8.148211 7.7952,8.258138 7.7952,8.258138 l 18.18879,0.211497 c 7.31005,-0.37125 5.94351,-6.242135 5.94351,-6.242135 v -12.99375 c -0.69039,-8.321919 8.1675,-7.425 8.1675,-7.425 8.33696,-0.598849 7.79624,7.79625 7.79624,7.79625 v 17.0775 c -0.14051,11.415627 -3.52997,12.251249 -12.25124,11.879999 H 27.84375 c 0,0 -10.369788,-0.630288 -10.76625,9.28125 z"
       id="path858"
       inkscape:connector-curvature="0"
       inkscape:label="path858"
       sodipodi:nodetypes="ccccccccccccccccccccccccccccccc"
       mask="none" />
  </g>
</svg>
