<?xml version="1.0" encoding="UTF-8" standalone="no"?>
<svg
   xmlns:dc="http://purl.org/dc/elements/1.1/"
   xmlns:cc="http://creativecommons.org/ns#"
   xmlns:rdf="http://www.w3.org/1999/02/22-rdf-syntax-ns#"
   xmlns:svg="http://www.w3.org/2000/svg"
   xmlns="http://www.w3.org/2000/svg"
   xmlns:xlink="http://www.w3.org/1999/xlink"
   id="svg8"
   version="1.1"
   viewBox="0 0 297 210"
   height="210mm"
   width="297mm">
  <defs
     id="defs2">
    <linearGradient
       id="rrtyyy-1-1-6-6-5-3">
      <stop
         id="stop1246"
         offset="0"
         style="stop-color:#bdc5ce;stop-opacity:1;" />
      <stop
         id="stop1248"
         offset="1"
         style="stop-color:#91a1b1;stop-opacity:0" />
    </linearGradient>
    <linearGradient
       gradientUnits="userSpaceOnUse"
       y2="118.30126"
       x2="309.62253"
       y1="67.068756"
       x1="-1.85625"
       id="linearGradient1252"
       xlink:href="#rrtyyy-1-1-6-6-5-3" />
  </defs>
  <metadata
     id="metadata5">
    <rdf:RDF>
      <cc:Work
         rdf:about="">
        <dc:format>image/svg+xml</dc:format>
        <dc:type
           rdf:resource="http://purl.org/dc/dcmitype/StillImage" />
        <dc:title></dc:title>
      </cc:Work>
    </rdf:RDF>
  </metadata>
  <rect
     y="4.8319498e-06"
     x="0"
     height="210"
     width="297"
     id="rect1223"
     style="display:inline;opacity:1;fill:url(#linearGradient1252);fill-opacity:1;fill-rule:evenodd;stroke:#000000;stroke-width:0.71;stroke-linecap:round;stroke-linejoin:round;stroke-miterlimit:4;stroke-dasharray:none;stroke-dashoffset:0;stroke-opacity:1;paint-order:normal" />
  <g
     style="display:none"
     transform="translate(0,-87)"
     id="layer1">
    <rect
       ry="1.778553e-17"
       y="92.441254"
       x="5.9400001"
       height="198.24748"
       width="279.92252"
       id="rect815"
       style="opacity:1;fill:none;fill-opacity:1;fill-rule:evenodd;stroke:#000000;stroke-width:0.60999995;stroke-linecap:round;stroke-linejoin:round;stroke-miterlimit:4;stroke-dasharray:none;stroke-dashoffset:0;stroke-opacity:1;paint-order:normal" />
    <rect
       ry="1.778553e-17"
       y="159.26625"
       x="5.9400001"
       height="131.42247"
       width="279.92255"
       id="rect817"
       style="opacity:1;fill:none;fill-opacity:1;fill-rule:evenodd;stroke:#000000;stroke-width:0.60999995;stroke-linecap:round;stroke-linejoin:round;stroke-miterlimit:4;stroke-dasharray:none;stroke-dashoffset:0;stroke-opacity:1;paint-order:normal" />
    <rect
       ry="1.778553e-17"
       y="92.441254"
       x="182.28375"
       height="66.824997"
       width="103.5788"
       id="rect819"
       style="opacity:1;fill:none;fill-opacity:1;fill-rule:evenodd;stroke:#000000;stroke-width:0.60999995;stroke-linecap:round;stroke-linejoin:round;stroke-miterlimit:4;stroke-dasharray:none;stroke-dashoffset:0;stroke-opacity:1;paint-order:normal" />
    <rect
       ry="0"
       y="159.26625"
       x="5.9400001"
       height="131.05125"
       width="217.18124"
       id="rect821"
       style="opacity:1;fill:none;fill-opacity:1;fill-rule:evenodd;stroke:#000000;stroke-width:0.60999995;stroke-linecap:round;stroke-linejoin:round;stroke-miterlimit:4;stroke-dasharray:none;stroke-dashoffset:0;stroke-opacity:1;paint-order:normal" />
    <rect
       y="92.441254"
       x="223.12125"
       height="66.824997"
       width="62.741272"
       id="rect823"
       style="opacity:1;fill:none;fill-opacity:1;fill-rule:evenodd;stroke:#000000;stroke-width:0.60999995;stroke-linecap:round;stroke-linejoin:round;stroke-miterlimit:4;stroke-dasharray:none;stroke-dashoffset:0;stroke-opacity:1;paint-order:normal" />
    <rect
       y="114.345"
       x="182.655"
       height="44.921249"
       width="103.20756"
       id="rect826"
       style="opacity:1;fill:none;fill-opacity:1;fill-rule:evenodd;stroke:#000000;stroke-width:0.61000001;stroke-linecap:round;stroke-linejoin:round;stroke-miterlimit:4;stroke-dasharray:none;stroke-dashoffset:0;stroke-opacity:1;paint-order:normal" />
  </g>
  <path
     id="path830"
     d="m 233.95117,2.78125 c -2.88866,-0.2018292 -6.08334,0.5058991 -8.74219,2.3125 -2.6938,1.8303559 -4.76578,5.100253 -4.38281,9.105469 l -0.01,-0.21875 v 11.058593 h -24.79688 c -0.0273,1.8e-4 -0.0547,8.47e-4 -0.082,0.002 -5.14574,0.18466 -9.13018,1.926641 -11.75586,4.599609 -2.62216,2.669389 -3.82685,6.166501 -3.83008,9.570313 -0.30972,5.141358 -0.3088,10.777901 1.24414,15.636718 1.56539,4.897757 5.19484,9.134972 11.15821,9.90625 0.0984,0.0129 0.1976,0.01942 0.29687,0.01953 h 27.76563 v 4.839843 H 20.433594 C 15.462581,69.57934 11.373272,71.099343 8.5722656,73.771484 5.771259,76.443626 4.3547553,80.18021 4.3339844,84.134766 c -2.5e-6,0.002 -2.5e-6,0.0039 0,0.0059 L 4.0429688,190.31836 c -2.008e-4,0.0176 -2.008e-4,0.0351 0,0.0527 0.091178,4.53344 0.6565074,8.49638 3.0605468,11.47852 2.4040395,2.98214 6.4497774,4.34237 11.9140624,4.14258 l -0.08398,0.002 H 210.86914 c 0.0652,1e-4 0.13035,-0.003 0.19531,-0.008 4.38796,-0.37234 8.13985,-1.99813 10.75391,-4.50391 2.61405,-2.50578 4.05885,-5.993 3.58789,-9.60156 l 0.0195,0.29883 V 74.222656 h 27.02344 l -0.1543,-0.0059 c 6.8489,0.461131 13.30116,-5.04908 13.9375,-12.902344 0.003,-0.03121 0.005,-0.06246 0.006,-0.09375 l 0.32617,-8.144531 h 10.38867 l -0.15624,-0.0059 c 3.2567,0.221278 6.20455,-1.125872 8.24609,-3.271484 2.04154,-2.145611 3.26882,-5.054949 3.49023,-8.183594 0.004,-0.05395 0.006,-0.108019 0.006,-0.162109 v -6.3125 c -0.002,-3.335036 -2.17067,-5.961936 -4.74609,-7.595703 -2.57543,-1.633767 -5.69535,-2.50586 -8.69727,-2.50586 h -28.36328 c 0.0452,-0.47919 0.21528,-0.846948 0.22656,-1.355468 1.9e-4,-0.01693 1.9e-4,-0.03385 0,-0.05078 V 13.98039 c -1.6e-4,-0.02801 -8.2e-4,-0.05601 -0.002,-0.08399 0,0 -0.077,-2.903416 -1.80664,-5.7578121 -1.71052,-2.8229073 -5.40621,-5.577114 -11.19922,-5.3574219 z m -0.24414,4.5859375 c 0.0974,0.00816 0.19529,0.010121 0.29297,0.00586 4.51896,-0.2219858 6.16154,1.4256744 7.20898,3.1542975 1.04745,1.728622 1.14063,3.537109 1.14063,3.537109 v 9.517578 c -0.0137,0.619238 -0.15906,0.949165 -0.22461,1.457031 H 225.42578 V 13.980469 c 2e-4,-0.07368 -0.003,-0.147337 -0.01,-0.220703 -0.22511,-2.354254 0.72329,-3.723974 2.38281,-4.8515629 1.65951,-1.1275888 4.09913,-1.6830875 5.9082,-1.5410156 z M 196.09375,29.650391 h 24.72266 v 1.457031 c -1.62595,0.359912 -3.18311,0.90353 -4.55469,1.779297 -2.50456,1.599187 -4.35547,4.405772 -4.35547,7.824219 -3.2e-4,0.02214 -3.2e-4,0.04427 0,0.06641 0.0923,3.172386 0.86582,6.157743 3.08594,8.341797 1.4242,1.401071 3.46947,2.275896 5.82422,2.955078 v 8.08789 h -27.54297 c -4.18716,-0.56855 -6.06021,-2.880047 -7.28711,-6.71875 -1.23497,-3.863939 -1.33431,-9.134772 -1.03125,-14.078125 0.003,-0.0468 0.005,-0.0937 0.006,-0.140625 0,-2.338727 0.79436,-4.607217 2.50976,-6.353515 1.71381,-1.744674 4.40988,-3.067227 8.62305,-3.220703 z m 29.33203,0 h 14.38867 c -0.91125,0.57988 -2.043,0.958984 -3.69922,0.958984 h -10.68945 z m 20.26953,0 h 29.40039 c 2.05093,0 4.49915,0.69201 6.22852,1.789062 1.72936,1.097053 2.60461,2.368931 2.60547,3.703125 v 6.16211 c -0.15315,2.110744 -1.0032,4.030677 -2.22657,5.316406 -1.22659,1.289121 -2.73173,1.976125 -4.59374,1.849609 -0.052,-0.0031 -0.10414,-0.0044 -0.15626,-0.0039 h -10.19921 c -0.3047,-1.995197 -1.15447,-3.964778 -2.48633,-5.677735 -2.26286,-2.910331 -6.05181,-5.132974 -10.57031,-4.666015 v 0 c -7.22433,-0.896375 -11.8517,4.520952 -12.01758,9.941447 -0.001,0.02342 -0.002,0.04686 -0.002,0.07031 v 0.332031 h -16.10937 c -0.0599,-0.0079 -0.0835,-0.02509 -0.14258,-0.0332 V 35.21875 h 10.68945 c 2.83498,0 5.62264,-0.714113 7.66797,-2.701172 0.8082,-0.785174 1.41372,-1.774128 1.91211,-2.867187 z m -24.8789,6.279297 v 11.441406 c -1.18343,-0.45274 -2.02022,-0.976731 -2.58985,-1.53711 -1.14329,-1.124722 -1.62523,-2.610853 -1.70508,-5.148437 0.008,-1.906695 0.74632,-2.969454 2.22266,-3.912109 0.55735,-0.355872 1.31796,-0.601442 2.07227,-0.84375 z m 32.83398,6.773437 c 0,0 -0.17349,0.01781 0,4.1e-5 2.80992,-0.290388 5.50022,1.017247 6.97656,2.916016 0.69475,0.89354 1.11493,1.906447 1.36719,2.847656 h -15.70508 v -0.269531 c 0,-2.573732 2.62188,-6.082199 7.36133,-5.494141 z m -28.22461,10.373047 h 16.25195 v 0.521484 c -0.16694,2.996433 -0.92901,4.466388 -2.13085,5.367188 -1.20523,0.903334 -3.32241,1.405067 -6.63086,1.201172 -0.0475,-0.0028 -0.095,-0.0041 -0.14258,-0.0039 h -7.34766 z m 20.86328,0 h 15.66016 l -0.31445,7.876953 c -0.45474,5.54673 -4.85298,8.947204 -9.0293,8.666016 -0.052,-0.0037 -0.10411,-0.0057 -0.15625,-0.0059 h -27.02344 v -4.839843 h 7.34766 l -0.14063,-0.0059 c 3.86474,0.238178 7.16606,-0.22927 9.67969,-2.113281 2.51363,-1.884012 3.76545,-5.019554 3.97266,-8.826172 0.002,-0.04162 0.004,-0.08331 0.004,-0.125 z M 20.402344,74.222656 c 0.0052,1.8e-5 0.01042,1.8e-5 0.01563,0 H 220.81641 V 192.17969 c 2e-5,0.0999 0.007,0.19975 0.0195,0.29883 0.27154,2.08057 -0.47585,4.0163 -2.20703,5.67578 -1.72352,1.65212 -4.45785,2.92615 -7.91211,3.22851 H 18.933594 c -0.028,1.6e-4 -0.056,8.2e-4 -0.08398,0.002 -4.689133,0.17145 -6.849337,-0.80655 -8.15625,-2.42774 -1.3066738,-1.62089 -1.9573132,-4.52481 -2.0410152,-8.67578 -1.53e-5,-7.6e-4 1.52e-5,-0.001 0,-0.002 L 8.9433594,84.158203 v -0.0059 c 0.016581,-2.896583 0.9839138,-5.302326 2.8105466,-7.044922 1.827942,-1.743844 4.610009,-2.912339 8.648438,-2.884766 z"
     style="color:#000000;font-style:normal;font-variant:normal;font-weight:normal;font-stretch:normal;font-size:medium;line-height:normal;font-family:sans-serif;font-variant-ligatures:normal;font-variant-position:normal;font-variant-caps:normal;font-variant-numeric:normal;font-variant-alternates:normal;font-feature-settings:normal;text-indent:0;text-align:start;text-decoration:none;text-decoration-line:none;text-decoration-style:solid;text-decoration-color:#000000;letter-spacing:normal;word-spacing:normal;text-transform:none;writing-mode:lr-tb;direction:ltr;text-orientation:mixed;dominant-baseline:auto;baseline-shift:baseline;text-anchor:start;white-space:normal;shape-padding:0;clip-rule:nonzero;display:inline;overflow:visible;visibility:visible;opacity:1;isolation:auto;mix-blend-mode:normal;color-interpolation:sRGB;color-interpolation-filters:linearRGB;solid-color:#000000;solid-opacity:1;vector-effect:none;fill:#4c5cca;fill-opacity:0.00505051;fill-rule:evenodd;stroke:#000000;stroke-width:0.81;stroke-linecap:round;stroke-linejoin:round;stroke-miterlimit:4;stroke-dasharray:none;stroke-dashoffset:0;stroke-opacity:0.99497483;paint-order:normal;color-rendering:auto;image-rendering:auto;shape-rendering:auto;text-rendering:auto;enable-background:accumulate" />
  <g
     style="display:none"
     id="layer2" />
  <path
     d="m 227.75,3.3300781 c -2.90765,-0.2156128 -7.03074,3.6441768 -7.0332,7.1660159 l -0.01,14.878906 h 5.03125 l 0.0566,-12.537109 c 0,-4.4068012 3.05152,-5.6484379 4.98633,-5.6484379 h 6.88867 c 3.50399,0 4.70469,3.4250069 4.7168,5.5097659 l 0.0723,12.675781 h 4.58008 V 10.632812 c 0,-2.7969078 -4.02344,-7.3027339 -7.16601,-7.3027339 z M 247.03906,25.375 v 0.275391 1.240234 c 0,1.005584 -0.3083,2.043605 -0.83984,3.03125 h 33.35547 c 1.72252,0 4.13523,2.566388 4.13672,5.097656 l 0.004,7.853516 c 0.15951,2.960278 -2.81102,5.65039 -4.83008,5.650391 h -12.40039 v 4.269531 h 13.50196 c 3.83772,0 8.54297,-5.289434 8.54297,-8.679688 V 33.779297 c 0,-4.318474 -5.18514,-8.404297 -9.23047,-8.404297 z m 19.42578,27.417969 h -4.68359 v 7.441406 c 0,6.546702 -5.26237,9.505859 -8.68164,9.505859 h -27.56055 l -0.0215,4.546875 h 28.27148 c 7.41918,0 12.67578,-6.205488 12.67578,-12.537109 z m -40.94726,21.49414 h -4.84375 l -0.084,119.869141 c 0,5.53938 -5.02569,7.3073 -7.44531,7.31055 l -196.886718,0.25781 c -3.939111,0 -7.4394526,-3.76944 -7.4394526,-7.43164 V 82.279297 c 0,-3.402401 4.3293566,-7.992188 10.1953126,-7.992188 H 220.67383 l 0.002,-4.546875 H 21.769531 c -9.96837,0 -17.4980466,4.886918 -17.4980466,11.986328 V 195.39453 c 0,5.74529 4.78313,10.46757 9.7832036,10.46289 l 198.814452,-0.18554 c 6.5424,0.26132 12.0798,-5.35494 12.09766,-9.3125 z m -4.8418,-4.546875 h 4.86328 l 0.0234,-5.564453 -4.88281,0.02148 z m 0.004,-5.542968 0.004,-4.101563 h -28.89453 c -4.37515,0 -7.02734,-4.55664 -7.02734,-7.302734 V 37.5 c 0,-3.636925 2.81464,-7.578125 7.7168,-7.578125 h 28.2246 l 0.004,-4.546875 h -28.64258 c -8.11263,0 -11.57422,7.811396 -11.57422,11.574219 v 16.533203 c 0,6.638951 6.76392,10.855679 10.06055,10.841797 z m 0.0234,-34.275391 v 0.964844 h 5.00977 l 0.006,-0.964844 z m 5.01563,0 h 14.33203 c 1.37379,-0.925718 2.41406,-2.339433 2.41406,-3.582031 l -0.006,-0.964844 h -16.7207 z m 14.33203,0 c -0.81111,0.546562 -1.7079,0.964844 -2.65625,0.964844 h -11.68164 l -0.0195,4.271484 h 11.70117 c 3.62312,0.193544 7.22192,-2.295419 8.80469,-5.236328 z m -14.35742,5.236328 h -3.86914 c -0.32433,0 -0.72852,0.145645 -1.12305,0.279297 l -0.01,12.693359 c 0.61088,0.203443 1.23869,0.392579 1.96093,0.392579 h 2.98243 z m -0.0586,13.365235 -0.0195,4.269531 h 16.32618 v -4.269531 z m 16.30664,0 h 4.39453 l 0.0391,-1.519532 c 0,-3.533829 3.20236,-4.667182 4.24609,-4.40625 h 6.19922 c 2.97547,0 4.96094,2.875957 4.96094,4.960938 v 0.964844 h 4.68359 v -1.378907 c 0,-4.538011 -3.71268,-8.818359 -8.40429,-8.818359 h -9.78125 c -3.35736,0 -6.33789,4.237223 -6.33789,7.166016 z m 19.83984,0 h -15.44531 l -0.10938,4.269531 h 15.55469 z m -15.55469,4.269531 h -4.28515 v 1.929687 c 0,2.976923 -3.12224,5.373047 -5.09961,5.373047 h -11.25977 l -0.0195,4.080078 12.24414,-0.05078 c 3.99369,0 8.35938,-2.628411 8.35938,-8.986328 z m -20.64453,7.302734 0.0332,-7.302734 h -4.92578 l -0.006,7.302734 z m -4.89258,-7.302734 0.002,-4.132813 v -0.529297 c -2.44577,-0.814511 -3.97657,-2.956091 -3.97657,-4.707031 v -3.582031 c 0,-2.006337 2.19361,-3.796982 3.98633,-4.404297 l 0.002,-4.550781 h -0.25585 c -3.54633,0 -8.43946,4.719134 -8.43946,6.751953 l -0.0488,6.474609 c 0,4.679002 6.11576,8.679688 8.2129,8.679688 z"
     id="path1162"
     style="display:none;opacity:1;fill:#225f97;fill-opacity:1;fill-rule:evenodd;stroke:#061019;stroke-width:0.69999999;stroke-linecap:round;stroke-linejoin:round;stroke-miterlimit:4;stroke-dasharray:none;stroke-dashoffset:0;stroke-opacity:1;paint-order:normal"
     xlink:href="#path1134" />
  <path
     id="path830-9"
     d="m 233.95117,2.7812508 c -2.88866,-0.2018292 -6.08334,0.5058991 -8.74219,2.3125002 -2.6938,1.830356 -4.76578,5.100253 -4.38281,9.105469 l -0.01,-0.21875 v 11.058593 h -24.79688 c -0.0273,1.8e-4 -0.0547,8.47e-4 -0.082,0.002 -5.14574,0.18466 -9.13018,1.926641 -11.75586,4.599609 -2.62216,2.669389 -3.82685,6.166501 -3.83008,9.570312 -0.30972,5.14136 -0.3088,10.777903 1.24414,15.636719 1.56539,4.897758 5.19484,9.134973 11.15821,9.906249 0.0984,0.01291 0.1976,0.01942 0.29687,0.01953 h 27.76563 v 4.839843 H 20.433601 c -4.971013,-0.03399 -9.060322,1.486011 -11.861329,4.158155 -2.801006,2.672141 -4.21751,6.408724 -4.238281,10.363282 -3e-6,0.0021 -3e-6,0.0039 0,0.0059 L 4.042975,190.31836 c -2.01e-4,0.0176 -2.01e-4,0.0351 0,0.0527 0.09118,4.53344 0.656508,8.49638 3.060547,11.47852 2.40404,2.98214 6.449778,4.34237 11.914063,4.14258 l -0.08398,0.002 H 210.86914 c 0.0652,1e-4 0.13035,-0.003 0.19531,-0.008 4.38797,-0.37234 8.13985,-1.99813 10.75391,-4.50391 2.61405,-2.50578 4.05885,-5.993 3.58789,-9.60156 l 0.0195,0.29883 V 74.222657 h 27.02345 l -0.1543,-0.0059 c 6.84889,0.461131 13.30116,-5.049078 13.93749,-12.902343 0.003,-0.03121 0.005,-0.06246 0.006,-0.09375 l 0.32617,-8.144531 h 10.38865 l -0.15623,-0.0059 c 3.2567,0.221276 6.20456,-1.125874 8.24611,-3.271486 2.04152,-2.145609 3.26879,-5.054949 3.49022,-8.183594 0.004,-0.05395 0.006,-0.108019 0.006,-0.162108 v -6.3125 c -0.003,-3.335036 -2.1707,-5.961936 -4.7461,-7.595703 -2.57543,-1.633767 -5.69537,-2.50586 -8.69728,-2.50586 h -28.36336 c 0.0452,-0.47919 0.21528,-0.846948 0.22656,-1.355468 1.9e-4,-0.01693 1.9e-4,-0.03385 0,-0.05078 v -9.652343 c -1.5e-4,-0.02801 -7.9e-4,-0.05601 -0.002,-0.08399 0,0 -0.077,-2.903416 -1.80664,-5.757812 -1.71041,-2.822908 -5.40609,-5.5771143 -11.1991,-5.3574222 z m -0.24413,4.5859372 c 0.0974,0.0082 0.19528,0.01012 0.29296,0.0059 4.51896,-0.221985 6.16154,1.425675 7.20898,3.154298 1.04745,1.728622 1.14063,3.537109 1.14063,3.537109 v 9.517577 c -0.0137,0.619238 -0.15906,0.949166 -0.2246,1.457031 H 225.42578 V 13.98047 c 2e-4,-0.07368 -0.003,-0.147337 -0.01,-0.220703 -0.22511,-2.354254 0.72329,-3.723974 2.38281,-4.851563 1.65951,-1.127589 4.09913,-1.683088 5.9082,-1.541016 z m -37.61329,22.283205 h 24.72266 v 1.457031 c -1.62595,0.35991 -3.18311,0.903528 -4.55469,1.779297 -2.50456,1.599186 -4.35546,4.40577 -4.35546,7.824218 -2.7e-4,0.02215 -2.7e-4,0.04427 0,0.06641 0.0923,3.172386 0.86581,6.157743 3.08593,8.341796 1.4242,1.401072 3.46947,2.275896 5.82422,2.955079 v 8.087889 h -27.54297 c -4.18716,-0.56855 -6.06021,-2.880048 -7.28711,-6.71875 -1.23497,-3.863938 -1.33431,-9.134771 -1.03125,-14.078125 0.003,-0.0468 0.005,-0.0937 0.006,-0.140626 0,-2.338726 0.79436,-4.607216 2.50976,-6.353513 1.71381,-1.744676 4.40988,-3.067228 8.62305,-3.220704 z m 29.33203,0 h 14.38867 c -0.91125,0.579879 -2.043,0.958982 -3.69922,0.958982 h -10.68945 z m 20.26953,0 h 29.40041 c 2.05091,0 4.49913,0.69201 6.2285,1.789062 1.72937,1.097053 2.60461,2.368931 2.60548,3.703124 v 6.162109 c -0.15316,2.110745 -1.00322,4.030679 -2.22657,5.316408 -1.22658,1.289121 -2.73174,1.976125 -4.59375,1.849609 -0.052,-0.0031 -0.10414,-0.0044 -0.15626,-0.0039 h -10.19921 c -0.3047,-1.995199 -1.15447,-3.964779 -2.48632,-5.677736 -2.26286,-2.910332 -6.05182,-5.132975 -10.57032,-4.666014 v 0 c -7.22433,-0.896377 -11.8517,4.520951 -12.01758,9.941446 -0.001,0.02341 -0.002,0.04686 -0.002,0.07031 v 0.332031 h -16.10937 c -0.0599,-0.0079 -0.0835,-0.02508 -0.14258,-0.0332 V 35.218761 h 10.68945 c 2.83498,0 5.62264,-0.714113 7.66797,-2.701171 0.8082,-0.785175 1.41372,-1.774129 1.91211,-2.867187 z m -24.8789,6.279295 v 11.441406 c -1.18343,-0.452739 -2.02022,-0.97673 -2.58985,-1.53711 -1.14328,-1.12472 -1.62523,-2.610852 -1.70508,-5.148437 0.008,-1.906693 0.74632,-2.969453 2.22266,-3.912108 0.55735,-0.355872 1.31797,-0.601443 2.07227,-0.843751 z m 32.83398,6.773439 c 0,0 -0.17349,0.01781 0,4e-5 2.80993,-0.290388 5.50022,1.017246 6.97657,2.916015 0.69474,0.893541 1.11492,1.906448 1.36718,2.847658 h -15.70508 v -0.269531 c 0,-2.573732 2.62188,-6.082199 7.36133,-5.494142 z m -28.22461,10.373046 h 16.25196 v 0.521485 c -0.16695,2.996433 -0.92902,4.466387 -2.13086,5.367187 -1.20523,0.903335 -3.32241,1.405067 -6.63086,1.201171 -0.0475,-0.0028 -0.095,-0.0041 -0.14257,-0.0039 h -7.34767 z m 20.86328,0 h 15.66016 l -0.31445,7.876952 c -0.45473,5.546731 -4.85297,8.947206 -9.0293,8.666017 -0.052,-0.0037 -0.10411,-0.0057 -0.15625,-0.0059 h -27.02344 v -4.839843 h 7.34767 l -0.14064,-0.0059 c 3.86474,0.238178 7.16606,-0.229269 9.6797,-2.11328 2.51362,-1.884013 3.76544,-5.019553 3.97265,-8.826172 0.002,-0.04162 0.004,-0.08331 0.004,-0.125 z M 20.402351,74.222657 c 0.0052,1.8e-5 0.01042,1.8e-5 0.01563,0 H 220.81641 V 192.17969 c 2e-5,0.0999 0.007,0.19975 0.0195,0.29883 0.27154,2.08057 -0.47585,4.0163 -2.20703,5.67578 -1.72352,1.65212 -4.45785,2.92615 -7.91211,3.22851 H 18.933601 c -0.028,1.6e-4 -0.056,8e-4 -0.08398,0.002 -4.689133,0.17145 -6.849337,-0.80655 -8.15625,-2.42774 -1.306674,-1.62089 -1.957314,-4.52481 -2.041016,-8.67578 -1.5e-5,-8e-4 1.6e-5,-0.001 0,-0.002 L 8.943366,84.158206 v -0.0059 c 0.01658,-2.896584 0.983914,-5.302326 2.810547,-7.044923 1.827942,-1.743844 4.610009,-2.91234 8.648438,-2.884765 z"
     style="color:#000000;font-style:normal;font-variant:normal;font-weight:normal;font-stretch:normal;font-size:medium;line-height:normal;font-family:sans-serif;font-variant-ligatures:normal;font-variant-position:normal;font-variant-caps:normal;font-variant-numeric:normal;font-variant-alternates:normal;font-feature-settings:normal;text-indent:0;text-align:start;text-decoration:none;text-decoration-line:none;text-decoration-style:solid;text-decoration-color:#000000;letter-spacing:normal;word-spacing:normal;text-transform:none;writing-mode:lr-tb;direction:ltr;text-orientation:mixed;dominant-baseline:auto;baseline-shift:baseline;text-anchor:start;white-space:normal;shape-padding:0;clip-rule:nonzero;display:none;overflow:visible;visibility:visible;opacity:1;isolation:auto;mix-blend-mode:normal;color-interpolation:sRGB;color-interpolation-filters:linearRGB;solid-color:#000000;solid-opacity:1;vector-effect:none;fill:#283487;fill-opacity:0.62352941;fill-rule:evenodd;stroke:#000000;stroke-width:0.81;stroke-linecap:round;stroke-linejoin:round;stroke-miterlimit:4;stroke-dasharray:none;stroke-dashoffset:0;stroke-opacity:0.99497483;paint-order:normal;color-rendering:auto;image-rendering:auto;shape-rendering:auto;text-rendering:auto;enable-background:accumulate" />
  <path
     d="M 19.013547,74.287366 H 253.78952 c 7.41918,0 12.6757,-6.206296 12.6757,-12.537917 V 47.14484 c 0,-4.538011 -3.71293,-8.817876 -8.40454,-8.817876 h -9.78233 c -3.35736,0 -6.33786,4.235732 -6.33786,7.164525 v 9.231214 c 0,2.976923 -3.12046,5.373395 -5.09783,5.373395 h -45.05384 c -4.37515,0 -7.02675,-4.556211 -7.02675,-7.302305 V 37.500288 c 0,-3.636925 2.81349,-7.577863 7.71565,-7.577863 h 87.07653 c 1.72252,0 4.13488,2.566565 4.13637,5.097833 l 0.005,7.853508 c 0.15951,2.960278 -2.8114,5.648868 -4.83046,5.648868 h -56.21377 c -3.61383,0 -5.93683,-2.909558 -5.93683,-5.097835 v -3.582263 c 0,-2.447872 3.31206,-4.684498 5.11016,-4.684498 h 15.56906 c 4.83987,0.258542 9.64439,-4.266849 9.64439,-8.266759 V 25.651265 10.633319 c 0,-2.7969083 -4.02199,-7.3023046 -7.16456,-7.3023046 h -12.12458 c -2.90765,-0.2156128 -7.02929,3.6426827 -7.03175,7.1645216 l -0.0265,38.164951 -0.10118,145.494993 c 0,5.53938 -5.02527,7.30895 -7.44489,7.3122 l -196.886941,0.25604 c -3.939112,0 -7.4399003,-3.76836 -7.4399003,-7.43056 V 82.278569 c 0,-3.402401 4.3297223,-7.991203 10.1956783,-7.991203 z M 4.2711606,81.727452 V 195.3954 c 0,5.74529 4.7825073,10.46674 9.7825804,10.46206 l 198.815519,-0.18621 c 6.5424,0.26132 12.0796,-5.35458 12.09746,-9.31214 l 0.82811,-183.521437 c 0,-4.4068008 3.05074,-5.6488373 4.98555,-5.6488373 h 6.88897 c 3.50399,0 4.70439,3.4254263 4.7165,5.5101853 l 0.0793,13.641295 c 0,1.976252 -2.51682,4.546564 -5.07141,4.546564 h -16.94681 c -3.54633,0 -8.43842,4.719888 -8.43842,6.752707 l -0.0494,6.474451 c 0,4.679002 6.11511,8.679755 8.21224,8.679755 h 59.79616 c 3.83772,0 8.5423,-5.289844 8.5423,-8.680098 V 33.780246 c 0,-4.318474 -5.18586,-8.40454 -9.23119,-8.40454 h -87.21424 c -8.11263,0 -11.57354,7.810641 -11.57354,11.573464 v 16.53352 c 0,6.638951 6.7629,10.856088 10.05953,10.842206 l 47.25681,-0.198976 c 3.99369,0 8.3584,-2.629612 8.3584,-8.987529 l 0.20857,-8.134232 c 0,-3.533829 3.20267,-4.666974 4.2464,-4.406042 h 6.20007 c 2.97547,0 4.96002,2.875076 4.96002,4.960057 v 12.675699 c 0,6.546702 -5.26083,9.506772 -8.6801,9.506772 l -231.331406,10e-7 c -9.96837,0 -17.4979734,4.887395 -17.4979734,11.986806 z"
     style="display:none;opacity:1;fill:#225f97;fill-opacity:1;fill-rule:evenodd;stroke:#061019;stroke-width:0.69999999;stroke-linecap:round;stroke-linejoin:round;stroke-miterlimit:4;stroke-dasharray:none;stroke-dashoffset:0;stroke-opacity:1;paint-order:normal"
     id="path1134" />
  <g
     style="display:inline"
     id="g900">
    <path
       style="display:inline;opacity:1;fill:#225f97;fill-opacity:1;fill-rule:evenodd;stroke:#061019;stroke-width:0.57884157;stroke-linecap:round;stroke-linejoin:round;stroke-miterlimit:4;stroke-dasharray:none;stroke-dashoffset:0;stroke-opacity:1;paint-order:normal"
       d="m 195.75226,24.12664 v 6.43413 l 1.27798,0.003 v -6.43694 z"
       id="path897-9" />
    <path
       style="display:inline;opacity:1;fill:#225f97;fill-opacity:1;fill-rule:evenodd;stroke:#061019;stroke-width:0.57884157;stroke-linecap:round;stroke-linejoin:round;stroke-miterlimit:4;stroke-dasharray:none;stroke-dashoffset:0;stroke-opacity:1;paint-order:normal"
       d="m 275.94226,47.653169 v 6.43413 l 1.27798,0.003 v -6.43694 z"
       id="path897-3" />
    <path
       style="display:inline;opacity:1;fill:#225f97;fill-opacity:1;fill-rule:evenodd;stroke:#061019;stroke-width:0.57884157;stroke-linecap:round;stroke-linejoin:round;stroke-miterlimit:4;stroke-dasharray:none;stroke-dashoffset:0;stroke-opacity:1;paint-order:normal"
       d="m 276.68476,24.180243 v 6.43413 l 1.27798,0.003 v -6.43694 z"
       id="path897-35" />
    <path
       style="display:inline;opacity:1;fill:#225f97;fill-opacity:1;fill-rule:evenodd;stroke:#061019;stroke-width:0.57884157;stroke-linecap:round;stroke-linejoin:round;stroke-miterlimit:4;stroke-dasharray:none;stroke-dashoffset:0;stroke-opacity:1;paint-order:normal"
       d="m 233.61976,59.299699 v 6.43413 l 1.27798,0.003 v -6.43694 z"
       id="path897-6" />
    <path
       style="display:inline;opacity:1;fill:#225f97;fill-opacity:1;fill-rule:evenodd;stroke:#061019;stroke-width:0.57884157;stroke-linecap:round;stroke-linejoin:round;stroke-miterlimit:4;stroke-dasharray:none;stroke-dashoffset:0;stroke-opacity:1;paint-order:normal"
       d="m 234.73351,30.162331 v 6.43413 l 1.27798,0.003 v -6.43694 z"
       id="path897-30" />
    <path
       style="display:inline;opacity:1;fill:#225f97;fill-opacity:1;fill-rule:evenodd;stroke:#061019;stroke-width:0.57884157;stroke-linecap:round;stroke-linejoin:round;stroke-miterlimit:4;stroke-dasharray:none;stroke-dashoffset:0;stroke-opacity:1;paint-order:normal"
       d="m 235.52961,1.9473313 v 6.43413 l 1.27798,0.003 v -6.43694 z"
       id="path897-17" />
    <path
       style="display:inline;opacity:1;fill:#225f97;fill-opacity:1;fill-rule:evenodd;stroke:#061019;stroke-width:0.57884157;stroke-linecap:round;stroke-linejoin:round;stroke-miterlimit:4;stroke-dasharray:none;stroke-dashoffset:0;stroke-opacity:1;paint-order:normal"
       d="m 219.90269,16.47545 h 6.43413 l 0.003,-1.27798 h -6.43694 z"
       id="path897-63" />
    <path
       style="display:inline;opacity:1;fill:#225f97;fill-opacity:1;fill-rule:evenodd;stroke:#061019;stroke-width:0.57884157;stroke-linecap:round;stroke-linejoin:round;stroke-miterlimit:4;stroke-dasharray:none;stroke-dashoffset:0;stroke-opacity:1;paint-order:normal"
       d="m 247.9144,13.945931 h -6.43413 l -0.003,1.27799 h 6.43694 z"
       id="path897-2" />
    <path
       style="display:inline;opacity:1;fill:#225f97;fill-opacity:1;fill-rule:evenodd;stroke:#061019;stroke-width:0.57884157;stroke-linecap:round;stroke-linejoin:round;stroke-miterlimit:4;stroke-dasharray:none;stroke-dashoffset:0;stroke-opacity:1;paint-order:normal"
       d="m 261.0087,47.226789 h 6.43412 l 0.003,-1.27798 h -6.43694 z"
       id="path897-03" />
    <path
       style="display:inline;opacity:1;fill:#225f97;fill-opacity:1;fill-rule:evenodd;stroke:#061019;stroke-width:0.57884157;stroke-linecap:round;stroke-linejoin:round;stroke-miterlimit:4;stroke-dasharray:none;stroke-dashoffset:0;stroke-opacity:1;paint-order:normal"
       d="m 240.85101,47.364605 h 6.43413 l 0.003,-1.27798 h -6.43695 z"
       id="path897-27" />
    <path
       style="display:inline;opacity:1;fill:#225f97;fill-opacity:1;fill-rule:evenodd;stroke:#061019;stroke-width:0.57884157;stroke-linecap:round;stroke-linejoin:round;stroke-miterlimit:4;stroke-dasharray:none;stroke-dashoffset:0;stroke-opacity:1;paint-order:normal"
       d="m 254.78101,37.078302 v 6.43413 l 1.27798,0.003 v -6.43694 z"
       id="path897-095" />
    <path
       style="display:inline;opacity:1;fill:#225f97;fill-opacity:1;fill-rule:evenodd;stroke:#061019;stroke-width:0.57884157;stroke-linecap:round;stroke-linejoin:round;stroke-miterlimit:4;stroke-dasharray:none;stroke-dashoffset:0;stroke-opacity:1;paint-order:normal"
       d="m 251.20629,37.049408 v 6.434133 l 1.27798,0.0027 v -6.43694 z"
       id="path897-42" />
    <path
       style="display:inline;opacity:1;fill:#225f97;fill-opacity:1;fill-rule:evenodd;stroke:#061019;stroke-width:0.57884157;stroke-linecap:round;stroke-linejoin:round;stroke-miterlimit:4;stroke-dasharray:none;stroke-dashoffset:0;stroke-opacity:1;paint-order:normal"
       d="m 217.42961,41.18476 h -6.43413 l -0.003,1.27798 h 6.43694 z"
       id="path897-7" />
    <path
       id="path1220"
       style="display:inline;opacity:1;fill:#225f97;fill-opacity:1;fill-rule:evenodd;stroke:#000000;stroke-width:0.70999998;stroke-linecap:round;stroke-linejoin:round;stroke-miterlimit:4;stroke-dasharray:none;stroke-dashoffset:0;stroke-opacity:1;paint-order:normal"
       d="m 220.81641,74.222654 h 4.60934 m -4.60955,-4.60933 4.60958,-8.5e-5 m -4.60958,-4.839758 4.60958,-8.5e-5 m -4.60937,-4.611285 4.60937,5e-6 m -4.60937,-30.511725 h 4.60937 m -4.60961,-4.611329 h 4.60961 m 16.69922,0 4.60767,-8.1e-5 m -6.91822,4.61141 h 5.88086 m -24.8789,6.279298 4.60933,-0.710938 m -4.60933,-4.111329 4.60937,-0.498046 m -4.60937,21.464846 4.60937,1.001948 m -4.60937,-5.705075 4.75191,1.095745 m 36.3809,4.60933 4.61534,-4e-5 m -4.57042,-4.609293 4.75978,-3.4e-5 m -25.07619,4.609367 h 4.61133 m -4.61137,-4.60933 4.61137,-3e-6" />
    <path
       style="display:inline;opacity:1;fill:#225f97;fill-opacity:1;fill-rule:evenodd;stroke:#061019;stroke-width:0.57884157;stroke-linecap:round;stroke-linejoin:round;stroke-miterlimit:4;stroke-dasharray:none;stroke-dashoffset:0;stroke-opacity:1;paint-order:normal"
       d="m 217.80106,37.53621 h -6.43412 l -0.003,1.27799 h 6.43694 z"
       id="path897-39" />
    <path
       style="display:inline;opacity:1;fill:#225f97;fill-opacity:1;fill-rule:evenodd;stroke:#061019;stroke-width:0.57884157;stroke-linecap:round;stroke-linejoin:round;stroke-miterlimit:4;stroke-dasharray:none;stroke-dashoffset:0;stroke-opacity:1;paint-order:normal"
       d="m 219.88351,30.43768 v 6.43414 l 1.27798,0.003 v -6.43695 z"
       id="path897-92-9" />
    <path
       style="display:inline;opacity:1;fill:#225f97;fill-opacity:1;fill-rule:evenodd;stroke:#061019;stroke-width:0.57884157;stroke-linecap:round;stroke-linejoin:round;stroke-miterlimit:4;stroke-dasharray:none;stroke-dashoffset:0;stroke-opacity:1;paint-order:normal"
       d="m 260.74018,61.3967 h 6.43413 l 0.003,-1.27798 h -6.43695 z"
       id="path897-46" />
    <path
       style="display:inline;opacity:1;fill:#225f97;fill-opacity:1;fill-rule:evenodd;stroke:#061019;stroke-width:0.57884157;stroke-linecap:round;stroke-linejoin:round;stroke-miterlimit:4;stroke-dasharray:none;stroke-dashoffset:0;stroke-opacity:1;paint-order:normal"
       d="m 219.53843,46.379593 v 6.43413 l 1.27798,0.003 v -6.43694 z"
       id="path897-92-2" />
    <path
       id="path897-61"
       d="m 232.80802,8.3840543 v -6.434133 l -1.27798,-0.0027 v 6.43694 z"
       style="display:inline;opacity:1;fill:#225f97;fill-opacity:1;fill-rule:evenodd;stroke:#061019;stroke-width:0.57884157;stroke-linecap:round;stroke-linejoin:round;stroke-miterlimit:4;stroke-dasharray:none;stroke-dashoffset:0;stroke-opacity:1;paint-order:normal" />
    <path
       id="path897-09"
       d="m 219.94478,189.84919 h 6.43413 l 0.003,-1.27798 h -6.43694 z"
       style="display:inline;opacity:1;fill:#225f97;fill-opacity:1;fill-rule:evenodd;stroke:#061019;stroke-width:0.57884157;stroke-linecap:round;stroke-linejoin:round;stroke-miterlimit:4;stroke-dasharray:none;stroke-dashoffset:0;stroke-opacity:1;paint-order:normal" />
    <path
       id="path897-0"
       d="m 179.98756,52.528778 h 6.43413 l 0.003,-1.27798 h -6.43694 z"
       style="display:inline;opacity:1;fill:#225f97;fill-opacity:1;fill-rule:evenodd;stroke:#061019;stroke-width:0.57884157;stroke-linecap:round;stroke-linejoin:round;stroke-miterlimit:4;stroke-dasharray:none;stroke-dashoffset:0;stroke-opacity:1;paint-order:normal" />
    <path
       id="path897-4"
       d="m 179.43644,40.204877 h 6.43412 l 0.003,-1.27798 h -6.43694 z"
       style="display:inline;opacity:1;fill:#225f97;fill-opacity:1;fill-rule:evenodd;stroke:#061019;stroke-width:0.57884157;stroke-linecap:round;stroke-linejoin:round;stroke-miterlimit:4;stroke-dasharray:none;stroke-dashoffset:0;stroke-opacity:1;paint-order:normal" />
    <path
       id="path897-94"
       d="m 282.9195,37.26545 h 6.43412 l 0.003,-1.27798 h -6.43694 z"
       style="display:inline;opacity:1;fill:#225f97;fill-opacity:1;fill-rule:evenodd;stroke:#061019;stroke-width:0.57884157;stroke-linecap:round;stroke-linejoin:round;stroke-miterlimit:4;stroke-dasharray:none;stroke-dashoffset:0;stroke-opacity:1;paint-order:normal" />
    <path
       id="path897-1"
       d="m 289.26094,42.29871 h -6.43414 l -0.003,1.27798 h 6.43694 z"
       style="display:inline;opacity:1;fill:#225f97;fill-opacity:1;fill-rule:evenodd;stroke:#061019;stroke-width:0.57884157;stroke-linecap:round;stroke-linejoin:round;stroke-miterlimit:4;stroke-dasharray:none;stroke-dashoffset:0;stroke-opacity:1;paint-order:normal" />
    <path
       id="path897-92"
       d="m 194.63851,59.39539 v 6.43413 l 1.27798,0.003 v -6.43694 z"
       style="display:inline;opacity:1;fill:#225f97;fill-opacity:1;fill-rule:evenodd;stroke:#061019;stroke-width:0.57884157;stroke-linecap:round;stroke-linejoin:round;stroke-miterlimit:4;stroke-dasharray:none;stroke-dashoffset:0;stroke-opacity:1;paint-order:normal" />
    <path
       id="path897-5"
       d="m 251.81101,69.047887 v 6.434133 l 1.27798,0.0027 v -6.43694 z"
       style="display:inline;opacity:1;fill:#225f97;fill-opacity:1;fill-rule:evenodd;stroke:#061019;stroke-width:0.57884157;stroke-linecap:round;stroke-linejoin:round;stroke-miterlimit:4;stroke-dasharray:none;stroke-dashoffset:0;stroke-opacity:1;paint-order:normal" />
    <path
       id="path897-8-3"
       d="m 210.42163,207.24386 v -6.41864 l -1.27854,-0.003 v 6.42143 z"
       style="display:inline;opacity:1;fill:#225f97;fill-opacity:1;fill-rule:evenodd;stroke:#061019;stroke-width:0.57827258;stroke-linecap:round;stroke-linejoin:round;stroke-miterlimit:4;stroke-dasharray:none;stroke-dashoffset:0;stroke-opacity:1;paint-order:normal" />
    <path
       id="path897-8-8"
       d="m 18.23433,207.19406 v -6.41892 l -1.278538,-0.002 v 6.42172 z"
       style="display:inline;opacity:1;fill:#225f97;fill-opacity:1;fill-rule:evenodd;stroke:#061019;stroke-width:0.57828289;stroke-linecap:round;stroke-linejoin:round;stroke-miterlimit:4;stroke-dasharray:none;stroke-dashoffset:0;stroke-opacity:1;paint-order:normal" />
    <path
       id="path897-8-9"
       d="m 9.2868414,186.55438 h -6.41892 l -0.00278,1.27855 h 6.4217172 z"
       style="display:inline;opacity:1;fill:#225f97;fill-opacity:1;fill-rule:evenodd;stroke:#061019;stroke-width:0.57828295;stroke-linecap:round;stroke-linejoin:round;stroke-miterlimit:4;stroke-dasharray:none;stroke-dashoffset:0;stroke-opacity:1;paint-order:normal" />
    <path
       id="path897-8"
       d="M 9.5948626,83.729756 H 3.1760003 l -0.00286,1.278546 H 9.594817 Z"
       style="display:inline;opacity:1;fill:#225f97;fill-opacity:1;fill-rule:evenodd;stroke:#061019;stroke-width:0.57828075;stroke-linecap:round;stroke-linejoin:round;stroke-miterlimit:4;stroke-dasharray:none;stroke-dashoffset:0;stroke-opacity:1;paint-order:normal" />
    <path
       id="path897"
       d="m 22.314421,68.935746 v 6.434133 l 1.277982,0.0027 v -6.43694 z"
       style="display:inline;opacity:1;fill:#225f97;fill-opacity:1;fill-rule:evenodd;stroke:#061019;stroke-width:0.57884157;stroke-linecap:round;stroke-linejoin:round;stroke-miterlimit:4;stroke-dasharray:none;stroke-dashoffset:0;stroke-opacity:1;paint-order:normal" />
  </g>
  <path
     id="path830-9-0"
     d="m 233.95127,2.7812497 c -2.88866,-0.2018292 -6.08334,0.5058991 -8.74219,2.3125003 -2.6938,1.830356 -4.76578,5.100253 -4.38281,9.105469 l -0.01,-0.21875 v 11.058593 h -24.79688 c -0.0273,1.8e-4 -0.0547,8.47e-4 -0.082,0.002 -5.14574,0.18466 -9.13018,1.926641 -11.75586,4.599609 -2.62216,2.669389 -3.82685,6.166501 -3.83008,9.570312 -0.30972,5.14136 -0.3088,10.777904 1.24414,15.63672 1.56539,4.897758 5.19484,9.134973 11.15821,9.906249 0.0984,0.01291 0.1976,0.01942 0.29687,0.01953 h 27.76563 v 4.839843 H 20.433701 c -4.971013,-0.03399 -9.060322,1.486011 -11.8613285,4.158155 -2.801006,2.672141 -4.2175101,6.408724 -4.2382811,10.363282 -3e-6,0.0021 -3e-6,0.0039 0,0.0059 L 4.0430754,190.31836 c -2.01e-4,0.0176 -2.01e-4,0.0351 0,0.0527 0.09118,4.53344 0.6565081,8.49638 3.0605471,11.47852 2.40404,2.98214 6.4497775,4.34237 11.9140625,4.14258 l -0.08398,0.002 H 210.86924 c 0.0652,1e-4 0.13035,-0.003 0.19531,-0.008 4.38797,-0.37234 8.13985,-1.99813 10.75391,-4.50391 2.61405,-2.50578 4.05885,-5.993 3.58789,-9.60156 l 0.0195,0.29883 V 74.222657 h 27.02345 l -0.1543,-0.0059 c 6.84889,0.461131 13.30116,-5.049078 13.93749,-12.902343 0.003,-0.03121 0.005,-0.06246 0.006,-0.09375 l 0.32617,-8.144531 h 10.38865 l -0.15623,-0.0059 c 3.2567,0.221276 6.20456,-1.125874 8.24611,-3.271486 2.04152,-2.145609 3.26879,-5.05495 3.49022,-8.183595 0.004,-0.05395 0.006,-0.108019 0.006,-0.162108 v -6.3125 c -0.003,-3.335036 -2.1707,-5.961936 -4.7461,-7.595703 -2.57543,-1.633767 -5.69537,-2.50586 -8.69728,-2.50586 h -28.36336 c 0.0452,-0.47919 0.21528,-0.846948 0.22656,-1.355468 1.9e-4,-0.01693 1.9e-4,-0.03385 0,-0.05078 V 13.98039 c -1.5e-4,-0.02801 -7.9e-4,-0.05601 -0.002,-0.08399 0,0 -0.077,-2.903416 -1.80664,-5.757812 -1.71041,-2.822908 -5.40609,-5.5771144 -11.1991,-5.3574223 z m -0.24413,4.5859373 c 0.0974,0.0082 0.19528,0.01012 0.29296,0.0059 4.51896,-0.221985 6.16154,1.425675 7.20898,3.154298 1.04745,1.728622 1.14063,3.537109 1.14063,3.537109 v 9.517577 c -0.0137,0.619238 -0.15906,0.949166 -0.2246,1.457031 H 225.42588 V 13.980469 c 2e-4,-0.07368 -0.003,-0.147337 -0.01,-0.220703 -0.22511,-2.354254 0.72329,-3.723974 2.38281,-4.851563 1.65951,-1.127589 4.09913,-1.683088 5.9082,-1.541016 z m -37.61329,22.283205 h 24.72266 v 1.457031 c -1.62595,0.35991 -3.18311,0.903528 -4.55469,1.779297 -2.50456,1.599186 -4.35546,4.40577 -4.35546,7.824218 -2.7e-4,0.02215 -2.7e-4,0.04427 0,0.06641 0.0923,3.172386 0.86581,6.157744 3.08593,8.341797 1.4242,1.401072 3.46947,2.275896 5.82422,2.955079 v 8.087889 h -27.54297 c -4.18716,-0.56855 -6.06021,-2.880048 -7.28711,-6.71875 -1.23497,-3.863938 -1.33431,-9.134772 -1.03125,-14.078126 0.003,-0.0468 0.005,-0.0937 0.006,-0.140626 0,-2.338726 0.79436,-4.607216 2.50976,-6.353513 1.71381,-1.744676 4.40988,-3.067228 8.62305,-3.220704 z m 29.33203,0 h 14.38867 c -0.91125,0.579879 -2.043,0.958982 -3.69922,0.958982 h -10.68945 z m 20.26953,0 h 29.40041 c 2.05091,0 4.49913,0.69201 6.2285,1.789062 1.72937,1.097053 2.60461,2.368931 2.60548,3.703124 v 6.162109 c -0.15316,2.110745 -1.00322,4.030679 -2.22657,5.316409 -1.22658,1.289121 -2.73174,1.976125 -4.59375,1.849609 -0.052,-0.0031 -0.10414,-0.0044 -0.15626,-0.0039 h -10.19921 c -0.3047,-1.995199 -1.15447,-3.96478 -2.48632,-5.677737 -2.26286,-2.910332 -6.05182,-5.132975 -10.57032,-4.666014 v 0 c -7.22433,-0.896377 -11.8517,4.520951 -12.01758,9.941447 -0.001,0.02341 -0.002,0.04686 -0.002,0.07031 v 0.332031 h -16.10937 c -0.0599,-0.0079 -0.0835,-0.02508 -0.14258,-0.0332 V 35.21876 h 10.68945 c 2.83498,0 5.62264,-0.714113 7.66797,-2.701171 0.8082,-0.785175 1.41372,-1.774129 1.91211,-2.867187 z m -24.8789,6.279295 v 11.441407 c -1.18343,-0.452739 -2.02022,-0.97673 -2.58985,-1.537111 -1.14328,-1.12472 -1.62523,-2.610852 -1.70508,-5.148437 0.008,-1.906693 0.74632,-2.969453 2.22266,-3.912108 0.55735,-0.355872 1.31797,-0.601443 2.07227,-0.843751 z m 32.83398,6.773439 c 0,0 -0.17349,0.01781 0,4e-5 2.80993,-0.290388 5.50022,1.017246 6.97657,2.916015 0.69474,0.893542 1.11492,1.906449 1.36718,2.847659 h -15.70508 v -0.269531 c 0,-2.573733 2.62188,-6.0822 7.36133,-5.494143 z m -28.22461,10.373047 h 16.25196 v 0.521485 c -0.16695,2.996433 -0.92902,4.466387 -2.13086,5.367187 -1.20523,0.903335 -3.32241,1.405067 -6.63086,1.201171 -0.0475,-0.0028 -0.095,-0.0041 -0.14257,-0.0039 h -7.34767 z m 20.86328,0 h 15.66016 l -0.31445,7.876952 c -0.45473,5.546731 -4.85297,8.947206 -9.0293,8.666017 -0.052,-0.0037 -0.10411,-0.0057 -0.15625,-0.0059 h -27.02344 v -4.839843 h 7.34767 l -0.14064,-0.0059 c 3.86474,0.238178 7.16606,-0.229269 9.6797,-2.11328 2.51362,-1.884013 3.76544,-5.019553 3.97265,-8.826172 0.002,-0.04162 0.004,-0.08331 0.004,-0.125 z M 20.402451,74.222657 c 0.0052,1.8e-5 0.01042,1.8e-5 0.01563,0 H 220.81651 V 192.17969 c 2e-5,0.0999 0.007,0.19975 0.0195,0.29883 0.27154,2.08057 -0.47585,4.0163 -2.20703,5.67578 -1.72352,1.65212 -4.45785,2.92615 -7.91211,3.22851 H 18.933701 c -0.028,1.6e-4 -0.056,8e-4 -0.08398,0.002 -4.689133,0.17145 -6.849337,-0.80655 -8.15625,-2.42774 -1.3066735,-1.62089 -1.9573135,-4.52481 -2.0410155,-8.67578 -1.5e-5,-8e-4 1.6e-5,-0.001 0,-0.002 L 8.9434665,84.158206 v -0.0059 c 0.01658,-2.896584 0.983914,-5.302326 2.8105465,-7.044923 1.827942,-1.743844 4.610009,-2.91234 8.648438,-2.884765 z"
     style="color:#000000;font-style:normal;font-variant:normal;font-weight:normal;font-stretch:normal;font-size:medium;line-height:normal;font-family:sans-serif;font-variant-ligatures:normal;font-variant-position:normal;font-variant-caps:normal;font-variant-numeric:normal;font-variant-alternates:normal;font-feature-settings:normal;text-indent:0;text-align:start;text-decoration:none;text-decoration-line:none;text-decoration-style:solid;text-decoration-color:#000000;letter-spacing:normal;word-spacing:normal;text-transform:none;writing-mode:lr-tb;direction:ltr;text-orientation:mixed;dominant-baseline:auto;baseline-shift:baseline;text-anchor:start;white-space:normal;shape-padding:0;clip-rule:nonzero;display:none;overflow:visible;visibility:visible;opacity:1;isolation:auto;mix-blend-mode:normal;color-interpolation:sRGB;color-interpolation-filters:linearRGB;solid-color:#000000;solid-opacity:1;vector-effect:none;fill:#283487;fill-opacity:0.62352941;fill-rule:evenodd;stroke:#000000;stroke-width:0.81;stroke-linecap:round;stroke-linejoin:round;stroke-miterlimit:4;stroke-dasharray:none;stroke-dashoffset:0;stroke-opacity:0.99497483;paint-order:normal;color-rendering:auto;image-rendering:auto;shape-rendering:auto;text-rendering:auto;enable-background:accumulate" />
  <path
     transform="scale(0.26458333)"
     id="path941"
     d="M 49.479488,774.0105 C 34.658105,770.041 26.082091,761.74018 21.044626,746.4881 c -2.622382,-7.93988 -2.960847,-12.91213 -3.417521,-50.20558 -0.278781,-22.7661 0.01166,-120.32008 0.645423,-216.78661 l 1.152297,-175.3937 3.630325,-7.71732 c 7.158514,-15.21753 18.31288,-24.21727 35.593867,-28.71839 7.32199,-1.90714 51.875743,-2.15091 393.127633,-2.15091 H 836.64642 V 254.3502 243.18479 l -56.51006,-0.41057 -56.51007,-0.41059 -9.40127,-4.6301 c -13.49454,-6.64601 -21.36737,-17.0821 -27.23593,-36.10348 -2.15399,-6.98156 -2.58441,-13.16727 -2.58441,-37.14123 0,-26.78712 0.21501,-29.23042 3.12754,-35.54108 4.42977,-9.59812 10.51278,-16.78484 18.5992,-21.97388 13.72972,-8.810338 15.037,-8.980871 75.09059,-9.795488 l 54.72283,-0.742305 0.70894,-28.062992 c 0.79745,-31.567232 1.76493,-35.095231 12.11624,-44.183812 8.70537,-7.64341 16.3707,-10.309346 31.53251,-10.966722 22.63055,-0.9812 36.99607,5.620814 45.44389,20.884812 l 4.20944,7.605879 0.4553,27.644781 0.45531,27.644782 61.98485,0.41821 61.98488,0.418212 9.1205,4.363313 c 10.3587,4.9557 18.0311,11.85398 21.6378,19.45461 2.0942,4.41312 2.3889,8.31628 1.9459,25.7702 -0.5892,23.21516 -2.4259,29.10939 -12.2135,39.19482 -9.5345,9.82467 -12.9924,10.75413 -42.9411,11.54225 l -26.6599,0.70158 -0.9652,17.53937 c -0.5308,9.64665 -1.3782,19.74933 -1.8829,22.45039 -2.572,13.76366 -15.03613,29.34662 -28.41792,35.52877 -6.3809,2.94785 -8.73871,3.08307 -65.55126,3.75942 l -58.93228,0.70158 -0.33081,230.68461 -0.33081,230.68461 -3.11705,6.44767 c -4.10284,8.48673 -14.1514,18.35704 -22.88118,22.47529 -15.91515,7.50792 7.1513,7.09678 -393.58346,7.01535 C 106.21594,776.08733 56.181348,775.8054 49.479488,774.0105 Z M 812.79287,759.80353 c 9.75407,-3.95429 17.53843,-10.33922 21.08797,-17.2969 2.71863,-5.32895 2.76558,-9.31639 2.76558,-234.90666 V 278.11428 l -386.91851,0.36562 c -366.976751,0.34677 -387.247983,0.49419 -393.311259,2.86028 -9.356898,3.65137 -16.06109,9.83412 -20.528684,18.93201 l -3.947849,8.03947 -0.701575,204.85984 c -0.385866,112.67291 -0.221489,210.22157 0.365284,216.77479 1.193646,13.3309 5.042725,22.74537 11.094898,27.13703 9.126723,6.62266 -5.688837,6.3904 389.840605,6.11149 l 372.53622,-0.26268 z M 965.16139,263.93415 c 3.9806,-1.00233 8.8038,-3.85012 13.17109,-7.77668 9.82718,-8.83549 12.19828,-16.0426 12.84736,-39.05054 l 0.51461,-18.24094 -31.01011,-0.37707 -31.0101,-0.37707 -1.64643,9.96952 c -0.90554,5.48323 -2.84856,12.32587 -4.31781,15.20585 -3.54273,6.94431 -12.61473,14.97908 -19.2623,17.05998 -2.94862,0.92301 -16.41093,2.07001 -29.91624,2.54889 l -24.55512,0.87069 -0.42301,8.97267 c -0.23266,4.93498 -0.0946,9.82846 0.30674,10.87441 0.59662,1.55475 10.60909,1.90173 54.8753,1.90173 35.51633,0 56.30638,-0.54411 60.42602,-1.58144 z m -128.82257,-51.81276 -0.39398,-16.91233 -8.27886,-3.36236 c -14.86653,-6.03787 -22.47318,-16.30579 -24.18047,-32.64029 -1.80388,-17.2587 8.27348,-32.2858 25.23731,-37.63317 7.56898,-2.38591 7.9236,-2.70945 7.9236,-7.22906 v -4.73137 l -53.67048,0.50585 c -37.25407,0.35112 -55.24872,1.02988 -58.83028,2.2191 -10.09024,3.35035 -18.3574,10.22214 -22.8124,18.96205 -3.81999,7.4941 -4.23128,9.69007 -4.75366,25.38124 -1.29453,38.88456 6.36881,62.22958 22.89178,69.73581 5.13465,2.33261 10.48727,2.5579 61.44303,2.58603 l 55.81838,0.0309 -0.39397,-16.91232 z m 68.5265,13.31774 c 6.74058,-5.039 9.13816,-9.5296 9.96675,-18.66735 l 0.78526,-8.66005 -32.8205,0.37712 -32.82049,0.37714 -0.40669,13.22466 c -0.22368,7.27356 -0.0703,14.10121 0.34078,15.17255 0.6081,1.58467 5.44039,1.86593 25.91623,1.5084 22.841,-0.39882 25.52666,-0.70704 29.03866,-3.33247 z m 11.03177,-46.52447 c 2.03785,-13.58931 10.14309,-24.42385 22.47767,-30.04662 6.41179,-2.92284 27.28033,-3.60133 36.02911,-1.1714 13.09609,3.63738 26.09203,16.75055 30.03173,30.30251 l 2.2417,7.71127 24.8894,-0.43796 c 24.3116,-0.42781 25.0213,-0.52538 30.5744,-4.20405 9.3847,-6.21695 12.2484,-13.92589 12.8044,-34.46975 0.5835,-21.55885 -0.8587,-24.60995 -14.9011,-31.52546 l -9.352,-4.60564 -61.92938,-0.40538 -61.92935,-0.40538 -1.77798,4.29246 c -0.9779,2.36084 -3.74821,5.95389 -6.15624,7.98454 -8.63687,7.28334 -12.28049,8.05882 -41.5617,8.84571 l -27.36141,0.7353 -0.38441,25.20952 c -0.21141,13.86523 -0.0734,26.02002 0.30676,27.01063 0.53475,1.39355 7.9678,1.80111 32.8483,1.80111 h 32.15716 z m 75.94292,4.64333 c 0.89722,-2.33812 -2.74978,-9.99616 -6.97465,-14.64549 -9.88931,-10.88281 -35.88475,-13.40771 -46.73121,-4.53892 -4.74906,3.88315 -8.86885,11.59028 -8.87461,16.60225 l -0.005,4.56024 h 30.91332 c 25.30449,0 31.05106,-0.3589 31.6724,-1.97808 z M 836.64642,157.47307 c 0,-17.44136 -0.4467,-23.85354 -1.66173,-23.85354 -4.24023,0 -14.0311,6.24507 -16.17399,10.31654 -2.85123,5.4173 -2.7992,18.78584 0.0947,24.34911 3.13839,6.0331 11.57331,12.8914 15.98701,12.99877 1.33604,0.0325 1.75394,-5.64072 1.75394,-23.81088 z m 65.2353,-41.19178 c 3.28521,-0.98996 5.79364,-2.686 6.06626,-4.10161 0.42749,-2.21977 -1.85803,-2.41369 -28.44665,-2.41369 -24.40472,0 -29.0374,0.32809 -29.71915,2.10472 -0.44422,1.1576 -0.44422,3.05185 0,4.20945 0.67458,1.75793 4.57187,2.08696 23.65288,1.99689 13.43352,-0.0634 25.15288,-0.80322 28.44666,-1.79576 z M 917.1774,94.918158 c 0.46844,-1.220718 0.84552,-12.112667 0.83798,-24.204331 -0.0125,-20.129228 -0.29184,-22.577007 -3.30899,-29.000595 -5.5936,-11.908888 -12.9262,-15.966915 -29.04585,-16.074632 -16.96078,-0.113337 -30.23211,6.167717 -34.47184,16.314838 -2.00969,4.809832 -2.86735,52.35992 -0.9785,54.24877 0.51448,0.514489 15.60095,0.935434 33.52547,0.935434 28.42346,0 32.69891,-0.283758 33.44173,-2.219484 z"
     style="display:none;opacity:1;fill:#4c5cca;fill-opacity:0.00505054;fill-rule:evenodd;stroke:#000000;stroke-width:4.29562664;stroke-linecap:round;stroke-linejoin:round;stroke-miterlimit:4;stroke-dasharray:none;stroke-dashoffset:0;stroke-opacity:0.99497483;paint-order:normal" />
  <path
     transform="scale(0.26458333)"
     id="path943"
     d="m 74.689465,772.12631 c -24.187331,-0.72109 -26.481632,-1.0209 -32.8244,-4.28944 C 33.29035,763.41818 27.850371,756.75264 24.092236,746.06008 21.401938,738.40571 21.098012,733.79403 20.488894,691.38409 20.123019,665.91 20.371145,568.35036 21.040286,474.58489 l 1.216621,-170.48268 3.27439,-6.31417 c 7.089018,-13.67012 14.520983,-20.26021 29.606765,-26.25296 5.934235,-2.35734 26.976175,-2.52796 394.940638,-3.20238 l 388.67244,-0.71238 V 254.2904 240.96048 l -57.52913,-0.70158 -57.52914,-0.70157 -7.31963,-3.85854 c -12.86657,-6.78259 -20.34444,-16.43167 -26.23365,-33.85063 -1.86106,-5.50461 -2.31369,-12.6853 -2.31856,-36.78304 -0.006,-29.37796 0.062,-30.07743 3.59853,-37.05647 4.60263,-9.08284 12.69434,-17.16184 21.82091,-21.78663 9.64276,-4.88635 26.80984,-6.225994 80.15887,-6.255246 34.36149,-0.01884 41.99697,-0.376324 43.66499,-2.044341 1.56963,-1.569635 2.17045,-8.077886 2.68782,-29.115354 0.75061,-30.521371 1.63297,-34.095499 10.29468,-41.700587 9.68408,-8.502736 16.20729,-10.555341 33.70431,-10.605459 14.57236,-0.04174 16.04882,0.218668 23.85355,4.207119 6.43042,3.286144 9.5942,6.102785 13.93228,12.403571 l 5.6126,8.151958 0.70157,28.989342 0.70158,28.989343 63.14173,0.701575 63.14175,0.701579 7.4931,3.94644 c 10.0787,5.30819 19.3573,14.10708 21.3986,20.29225 2.3838,7.22322 0.88,40.084 -2.1698,47.41018 -2.8888,6.9396 -12.5561,17.08899 -19.0046,19.9522 -3.6445,1.61824 -11.5337,2.34525 -30.5913,2.81912 -19.8963,0.49471 -26.138,1.09618 -27.7122,2.67042 -1.3794,1.37934 -2.0562,5.26676 -2.1076,12.10449 -0.1273,16.93552 -2.15516,31.14979 -5.40066,37.8541 -4.43862,9.16897 -12.75404,18.0056 -21.38639,22.7269 l -7.51445,4.10988 -58.41558,0.56852 c -32.12858,0.31268 -59.27952,1.10237 -60.33544,1.75486 -1.60722,0.99318 -2.03409,38.95232 -2.62142,233.10818 -0.64958,214.73664 -0.87813,232.24413 -3.08425,236.27153 -3.76959,6.88158 -14.98253,17.10751 -23.12935,21.09337 -7.00072,3.42513 -9.3007,3.72784 -36.58155,4.81465 -31.68454,1.26225 -666.58786,1.24766 -708.983845,-0.0163 z M 813.49445,762.5158 c 11.09284,-5.09541 17.4217,-10.10996 21.48675,-17.02457 l 3.76994,-6.41264 V 507.5589 276.03922 l -287.64567,-0.34657 c -158.20512,-0.19062 -334.05484,0.15158 -390.77716,0.76044 -101.351585,1.0879 -103.228366,1.15843 -108.744098,4.08634 -7.104476,3.77126 -14.887965,11.92486 -19.144538,20.0549 l -3.305856,6.31418 v 215.38346 c 0,231.23546 -0.336424,220.16104 7.037225,231.65118 5.957222,9.28297 9.798195,10.18074 47.68561,11.14601 18.521577,0.47188 188.688547,0.81101 378.148817,0.75362 l 344.47323,-0.10439 7.01575,-3.22263 z M 970.00007,265.13284 c 8.62735,-4.27775 15.07531,-10.64113 19.08313,-18.83282 3.58787,-7.33334 3.92584,-9.5006 4.47029,-28.66612 l 0.58899,-20.73301 -3.32873,-0.81735 c -1.83082,-0.44954 -16.86924,-0.63881 -33.41875,-0.42061 l -30.08998,0.39676 -1.89836,10.35948 c -2.28122,12.44867 -5.678,19.52909 -11.87628,24.75539 -8.08848,6.82009 -12.37885,7.78636 -38.56862,8.68628 -18.37001,0.63122 -25.02592,1.34059 -26.51073,2.8254 -2.56842,2.56842 -2.74996,20.45232 -0.22863,22.5231 3.21251,2.63843 8.43126,2.85621 62.79095,2.62016 48.38538,-0.21012 54.53928,-0.49145 58.98672,-2.69666 z M 839.14315,213.3421 c 0.28867,-13.10508 -0.0812,-18.21378 -1.40315,-19.37992 -0.98734,-0.87099 -5.87256,-3.59674 -10.85605,-6.05722 -16.08659,-7.94239 -23.52646,-23.01847 -19.73032,-39.98137 2.17788,-9.73183 11.45587,-19.73216 21.77546,-23.47079 9.90298,-3.5877 10.72477,-4.4749 10.24231,-11.05761 l -0.42026,-5.73393 -54.23744,0.2121 c -45.01868,0.17604 -55.54487,0.59217 -61.92953,2.44824 -10.038,2.91812 -20.4921,12.20203 -25.00301,22.20427 -3.0838,6.83786 -3.3413,9.18921 -3.3464,30.5598 -0.007,26.54747 2.31072,39.58632 9.16318,51.56394 4.67489,8.17137 12.65989,14.28735 20.71467,15.86606 2.85607,0.55979 29.81814,0.92891 59.9157,0.82028 l 54.72283,-0.19752 z m 57.52415,17.23922 c 13.42333,-1.91085 19.60212,-9.37889 20.9374,-25.30615 l 0.8314,-9.91706 h -33.77886 c -28.83721,0 -34.10144,0.32257 -35.98383,2.20496 -1.70418,1.70418 -2.20006,5.28924 -2.18346,15.78543 0.022,13.92578 0.53836,16.07949 4.18796,17.46876 3.076,1.17093 37.34139,0.99513 45.98939,-0.23594 z m 22.02547,-50.88471 c 2.18987,-10.97234 8.43255,-20.51924 16.80142,-25.69432 6.56221,-4.05788 7.55796,-4.24654 22.4133,-4.24654 14.61542,0 15.99658,0.24956 23.07282,4.1689 9.50127,5.2625 16.50269,13.75767 20.57369,24.96311 l 3.18,8.75303 25.7527,-0.0968 c 28.0087,-0.10523 30.4612,-0.65758 37.9558,-8.5476 5.7231,-6.02514 7.9726,-12.89638 8.9981,-27.48485 1.7658,-25.12153 -1.2364,-31.65968 -18.2909,-39.83281 l -9.847,-4.71902 h -62.10038 -62.10044 l -2.68552,5.26181 c -6.44932,12.63641 -12.33016,14.63703 -45.51522,15.48393 -20.40296,0.52069 -26.8532,1.13192 -28.41378,2.69251 -1.61005,1.61004 -2.01455,7.18438 -1.99741,27.52615 0.0112,14.02898 0.48537,26.22348 1.05236,27.09887 1.76884,2.73098 5.74995,3.02549 38.10422,2.8188 l 31.46075,-0.20097 z m 75.12741,5.83946 c 1.67178,-2.66951 0.69342,-6.1007 -4.0009,-14.0315 -2.86462,-4.83959 -5.70354,-7.29723 -12.15633,-10.52362 -7.41281,-3.70641 -9.84419,-4.20354 -20.34567,-4.15997 -12.69527,0.0526 -17.67178,1.73114 -23.43578,7.90446 -5.71995,6.12613 -9.52545,19.65412 -6.40626,22.77331 0.56497,0.56498 15.42715,0.82807 33.02705,0.58464 26.58703,-0.36773 32.22276,-0.79862 33.31789,-2.54732 z M 838.08429,180.5337 c 0.75264,-1.97957 1.36843,-12.35685 1.36843,-23.06063 0,-27.01322 -1.34334,-29.62616 -12.33347,-23.99009 -9.44211,4.8422 -12.07122,8.91978 -12.67828,19.66319 -0.70184,12.4208 2.69841,20.61666 11.06894,26.68024 7.28925,5.28031 10.76147,5.47561 12.57438,0.70729 z m 66.524,-62.47338 c 6.02591,-2.95245 7.76932,-6.56345 4.38293,-9.07809 -2.14467,-1.59258 -8.25959,-2.01847 -28.76456,-2.00338 -14.32248,0.0105 -27.44066,0.39442 -29.15149,0.85307 -5.41638,1.45206 -5.93006,10.71272 -0.68211,12.29723 1.31426,0.39681 13.14101,0.5392 26.28166,0.3164 17.02001,-0.28856 25.05455,-0.97463 27.93357,-2.38523 z m 14.32836,-21.624253 c 1.69098,-2.281142 1.99764,-7.270136 1.63871,-26.659843 -0.43904,-23.718713 -0.46613,-23.897164 -4.79093,-31.570866 -6.63152,-11.766657 -12.83868,-14.73307 -30.82857,-14.73307 -12.94678,0 -14.81635,0.352683 -22.31425,4.209448 -9.82904,5.055857 -13.41708,9.513332 -14.89566,18.505126 -1.41191,8.586375 -1.57257,48.339889 -0.20364,50.389599 1.96834,2.94721 5.41075,3.219003 37.27721,2.943191 30.23551,-0.261694 32.15384,-0.435077 34.11713,-3.083585 z"
     style="opacity:1;fill:#0000ff;fill-opacity:0.84848487;fill-rule:evenodd;stroke:#b9bdc3;stroke-width:0;stroke-linecap:round;stroke-linejoin:round;stroke-miterlimit:4;stroke-dasharray:none;stroke-dashoffset:0;stroke-opacity:0.99497485;paint-order:normal" />
  <path
     transform="scale(0.26458333)"
     id="path945"
     d="m 128.05587,766.39885 c -53.976159,-0.60174 -77.992982,-1.3523 -81.64328,-2.55146 -5.706584,-1.87468 -11.644228,-8.09782 -14.93043,-15.64833 -3.172248,-7.28869 -4.191812,-70.97309 -4.332803,-270.63707 l -0.120263,-170.31188 4.126702,-7.18655 c 5.262642,-9.16476 14.639604,-18.32209 21.831566,-21.32022 8.560934,-3.56881 162.179248,-4.94365 501.625988,-4.48939 l 285.54094,0.38212 0.35495,232.09193 0.35495,232.09193 -4.41036,6.87295 c -5.10467,7.95493 -9.73484,11.721 -21.867,17.78613 l -8.72968,4.36414 -300.66481,-0.29588 c -165.36566,-0.16274 -335.07707,-0.67953 -377.13647,-1.14842 z m 683.06596,-9.32681 c 10.36868,-4.25046 16.95766,-9.6533 20.03389,-16.42741 2.52656,-5.56363 2.62389,-14.10174 2.65358,-232.75713 l 0.0308,-226.98163 -384.81378,0.37297 c -364.335067,0.35313 -385.144677,0.50512 -391.031599,2.85601 -9.7471,3.89243 -15.537617,9.13625 -19.559175,17.71255 l -3.689149,7.86741 V 524.3967 739.07859 l 3.507874,6.99221 c 4.200762,8.37334 9.756516,11.94347 20.813739,13.37492 4.372955,0.56613 173.69787,0.95075 376.2776,0.85472 l 368.32677,-0.17461 z"
     style="display:none;opacity:1;fill:#4c5cca;fill-opacity:0.00505054;fill-rule:evenodd;stroke:#9cbee0;stroke-width:4.29562664;stroke-linecap:round;stroke-linejoin:round;stroke-miterlimit:4;stroke-dasharray:none;stroke-dashoffset:0;stroke-opacity:0.99497483;paint-order:normal" />
</svg>
