<?xml version="1.0" encoding="UTF-8" standalone="no"?>
<!DOCTYPE svg PUBLIC "-//W3C//DTD SVG 1.1//EN"
 "http://www.w3.org/Graphics/SVG/1.1/DTD/svg11.dtd">
<!-- Generated by graphviz version 2.47.0 (20210316.0004)
 -->
<!-- Title: dependencies Pages: 1 -->
<svg width="2105pt" height="284pt"
 viewBox="0.00 0.00 2105.00 284.00" xmlns="http://www.w3.org/2000/svg" xmlns:xlink="http://www.w3.org/1999/xlink">
<g id="graph0" class="graph" transform="scale(1 1) rotate(0) translate(4 280)">
<title>dependencies</title>
<polygon fill="white" stroke="transparent" points="-4,4 -4,-280 2101,-280 2101,4 -4,4"/>
<text text-anchor="start" x="1027.51" y="-42.4" font-family="Times-12" font-weight="bold" font-size="14.00">Legend</text>
<polygon fill="#ffffb3" stroke="transparent" points="814.5,-10 814.5,-30 834.5,-30 834.5,-10 814.5,-10"/>
<text text-anchor="start" x="838.13" y="-15.4" font-family="Times-12" font-size="14.00"> &#160;Declarations</text>
<polygon fill="#8dd3c7" stroke="transparent" points="927.5,-10 927.5,-30 947.5,-30 947.5,-10 927.5,-10"/>
<text text-anchor="start" x="951.23" y="-15.4" font-family="Times-12" font-size="14.00"> &#160;Module</text>
<polygon fill="#80b1d3" stroke="transparent" points="1013.5,-10 1013.5,-30 1033.5,-30 1033.5,-10 1013.5,-10"/>
<text text-anchor="start" x="1037.28" y="-15.4" font-family="Times-12" font-size="14.00"> &#160;Bootstrap</text>
<polygon fill="#fdb462" stroke="transparent" points="1110.5,-10 1110.5,-30 1130.5,-30 1130.5,-10 1110.5,-10"/>
<text text-anchor="start" x="1134.17" y="-15.4" font-family="Times-12" font-size="14.00"> &#160;Providers</text>
<polygon fill="#fb8072" stroke="transparent" points="1206.5,-10 1206.5,-30 1226.5,-30 1226.5,-10 1206.5,-10"/>
<text text-anchor="start" x="1230.23" y="-15.4" font-family="Times-12" font-size="14.00"> &#160;Exports</text>
<g id="clust1" class="cluster">
<title>cluster_AppModule</title>
<polygon fill="none" stroke="black" stroke-dasharray="1,5" points="8,-70 8,-268 2089,-268 2089,-70 8,-70"/>
</g>
<g id="clust2" class="cluster">
<title>cluster_AppModule_declarations</title>
<polygon fill="none" stroke="black" points="168,-78 168,-130 2081,-130 2081,-78 168,-78"/>
</g>
<g id="clust17" class="cluster">
<title>cluster_AppModule_imports</title>
<polygon fill="none" stroke="black" points="16,-78 16,-130 160,-130 160,-78 16,-78"/>
</g>
<g id="clust19" class="cluster">
<title>cluster_AppModule_bootstrap</title>
<polygon fill="none" stroke="black" points="959,-208 959,-260 1083,-260 1083,-208 959,-208"/>
</g>
<!-- AboutProjectComponent -->
<g id="node1" class="node">
<title>AboutProjectComponent</title>
<polygon fill="#ffffb3" stroke="black" points="2072.98,-122 1917.02,-122 1917.02,-86 2072.98,-86 2072.98,-122"/>
<text text-anchor="middle" x="1995" y="-99.8" font-family="Times,serif" font-size="14.00">AboutProjectComponent</text>
</g>
<!-- AppModule -->
<g id="node15" class="node">
<title>AppModule</title>
<polygon fill="#8dd3c7" stroke="black" points="1062.66,-187 1059.66,-191 1038.66,-191 1035.66,-187 979.34,-187 979.34,-151 1062.66,-151 1062.66,-187"/>
<text text-anchor="middle" x="1021" y="-164.8" font-family="Times,serif" font-size="14.00">AppModule</text>
</g>
<!-- AboutProjectComponent&#45;&gt;AppModule -->
<g id="edge1" class="edge">
<title>AboutProjectComponent&#45;&gt;AppModule</title>
<path fill="none" stroke="black" d="M1995,-122.32C1995,-145.66 1995,-183 1995,-183 1995,-183 1072.85,-183 1072.85,-183"/>
<polygon fill="black" stroke="black" points="1072.85,-179.5 1062.85,-183 1072.85,-186.5 1072.85,-179.5"/>
</g>
<!-- AppComponent -->
<g id="node2" class="node">
<title>AppComponent</title>
<polygon fill="#ffffb3" stroke="black" points="1898.94,-122 1793.06,-122 1793.06,-86 1898.94,-86 1898.94,-122"/>
<text text-anchor="middle" x="1846" y="-99.8" font-family="Times,serif" font-size="14.00">AppComponent</text>
</g>
<!-- AppComponent&#45;&gt;AppModule -->
<g id="edge2" class="edge">
<title>AppComponent&#45;&gt;AppModule</title>
<path fill="none" stroke="black" d="M1846,-122.29C1846,-144.21 1846,-178 1846,-178 1846,-178 1072.76,-178 1072.76,-178"/>
<polygon fill="black" stroke="black" points="1072.76,-174.5 1062.76,-178 1072.76,-181.5 1072.76,-174.5"/>
</g>
<!-- ArrowUpComponent -->
<g id="node3" class="node">
<title>ArrowUpComponent</title>
<polygon fill="#ffffb3" stroke="black" points="1775.47,-122 1640.53,-122 1640.53,-86 1775.47,-86 1775.47,-122"/>
<text text-anchor="middle" x="1708" y="-99.8" font-family="Times,serif" font-size="14.00">ArrowUpComponent</text>
</g>
<!-- ArrowUpComponent&#45;&gt;AppModule -->
<g id="edge3" class="edge">
<title>ArrowUpComponent&#45;&gt;AppModule</title>
<path fill="none" stroke="black" d="M1708,-122.03C1708,-142.77 1708,-174 1708,-174 1708,-174 1072.68,-174 1072.68,-174"/>
<polygon fill="black" stroke="black" points="1072.68,-170.5 1062.68,-174 1072.68,-177.5 1072.68,-170.5"/>
</g>
<!-- AsideComponent -->
<g id="node4" class="node">
<title>AsideComponent</title>
<polygon fill="#ffffb3" stroke="black" points="1622.99,-122 1509.01,-122 1509.01,-86 1622.99,-86 1622.99,-122"/>
<text text-anchor="middle" x="1566" y="-99.8" font-family="Times,serif" font-size="14.00">AsideComponent</text>
</g>
<!-- AsideComponent&#45;&gt;AppModule -->
<g id="edge4" class="edge">
<title>AsideComponent&#45;&gt;AppModule</title>
<path fill="none" stroke="black" d="M1566,-122.11C1566,-141.34 1566,-169 1566,-169 1566,-169 1072.86,-169 1072.86,-169"/>
<polygon fill="black" stroke="black" points="1072.86,-165.5 1062.86,-169 1072.86,-172.5 1072.86,-165.5"/>
</g>
<!-- AsideIconsDirective -->
<g id="node5" class="node">
<title>AsideIconsDirective</title>
<polygon fill="#ffffb3" stroke="black" points="1490.56,-122 1359.44,-122 1359.44,-86 1490.56,-86 1490.56,-122"/>
<text text-anchor="middle" x="1425" y="-99.8" font-family="Times,serif" font-size="14.00">AsideIconsDirective</text>
</g>
<!-- AsideIconsDirective&#45;&gt;AppModule -->
<g id="edge5" class="edge">
<title>AsideIconsDirective&#45;&gt;AppModule</title>
<path fill="none" stroke="black" d="M1425,-122.3C1425,-140.27 1425,-165 1425,-165 1425,-165 1072.71,-165 1072.71,-165"/>
<polygon fill="black" stroke="black" points="1072.71,-161.5 1062.71,-165 1072.71,-168.5 1072.71,-161.5"/>
</g>
<!-- CircleDirective -->
<g id="node6" class="node">
<title>CircleDirective</title>
<polygon fill="#ffffb3" stroke="black" points="1341.29,-122 1238.71,-122 1238.71,-86 1341.29,-86 1341.29,-122"/>
<text text-anchor="middle" x="1290" y="-99.8" font-family="Times,serif" font-size="14.00">CircleDirective</text>
</g>
<!-- CircleDirective&#45;&gt;AppModule -->
<g id="edge6" class="edge">
<title>CircleDirective&#45;&gt;AppModule</title>
<path fill="none" stroke="black" d="M1290,-122.03C1290,-138.4 1290,-160 1290,-160 1290,-160 1072.74,-160 1072.74,-160"/>
<polygon fill="black" stroke="black" points="1072.74,-156.5 1062.74,-160 1072.74,-163.5 1072.74,-156.5"/>
</g>
<!-- ContentComponent -->
<g id="node7" class="node">
<title>ContentComponent</title>
<polygon fill="#ffffb3" stroke="black" points="1220.67,-122 1095.33,-122 1095.33,-86 1220.67,-86 1220.67,-122"/>
<text text-anchor="middle" x="1158" y="-99.8" font-family="Times,serif" font-size="14.00">ContentComponent</text>
</g>
<!-- ContentComponent&#45;&gt;AppModule -->
<g id="edge7" class="edge">
<title>ContentComponent&#45;&gt;AppModule</title>
<path fill="none" stroke="black" d="M1158,-122.19C1158,-137.18 1158,-156 1158,-156 1158,-156 1072.85,-156 1072.85,-156"/>
<polygon fill="black" stroke="black" points="1072.85,-152.5 1062.85,-156 1072.85,-159.5 1072.85,-152.5"/>
</g>
<!-- CounterDirective -->
<g id="node8" class="node">
<title>CounterDirective</title>
<polygon fill="#ffffb3" stroke="black" points="1077.69,-122 964.31,-122 964.31,-86 1077.69,-86 1077.69,-122"/>
<text text-anchor="middle" x="1021" y="-99.8" font-family="Times,serif" font-size="14.00">CounterDirective</text>
</g>
<!-- CounterDirective&#45;&gt;AppModule -->
<g id="edge8" class="edge">
<title>CounterDirective&#45;&gt;AppModule</title>
<path fill="none" stroke="black" d="M1021,-122.11C1021,-122.11 1021,-140.99 1021,-140.99"/>
<polygon fill="black" stroke="black" points="1017.5,-140.99 1021,-150.99 1024.5,-140.99 1017.5,-140.99"/>
</g>
<!-- FooterComponent -->
<g id="node9" class="node">
<title>FooterComponent</title>
<polygon fill="#ffffb3" stroke="black" points="945.88,-122 828.12,-122 828.12,-86 945.88,-86 945.88,-122"/>
<text text-anchor="middle" x="887" y="-99.8" font-family="Times,serif" font-size="14.00">FooterComponent</text>
</g>
<!-- FooterComponent&#45;&gt;AppModule -->
<g id="edge9" class="edge">
<title>FooterComponent&#45;&gt;AppModule</title>
<path fill="none" stroke="black" d="M887,-122.19C887,-137.18 887,-156 887,-156 887,-156 969.34,-156 969.34,-156"/>
<polygon fill="black" stroke="black" points="969.34,-159.5 979.34,-156 969.34,-152.5 969.34,-159.5"/>
</g>
<!-- HeaderComponent -->
<g id="node10" class="node">
<title>HeaderComponent</title>
<polygon fill="#ffffb3" stroke="black" points="809.74,-122 688.26,-122 688.26,-86 809.74,-86 809.74,-122"/>
<text text-anchor="middle" x="749" y="-99.8" font-family="Times,serif" font-size="14.00">HeaderComponent</text>
</g>
<!-- HeaderComponent&#45;&gt;AppModule -->
<g id="edge10" class="edge">
<title>HeaderComponent&#45;&gt;AppModule</title>
<path fill="none" stroke="black" d="M749,-122.03C749,-138.4 749,-160 749,-160 749,-160 969.1,-160 969.1,-160"/>
<polygon fill="black" stroke="black" points="969.1,-163.5 979.1,-160 969.1,-156.5 969.1,-163.5"/>
</g>
<!-- NotFoundComponent -->
<g id="node11" class="node">
<title>NotFoundComponent</title>
<polygon fill="#ffffb3" stroke="black" points="670.11,-122 531.89,-122 531.89,-86 670.11,-86 670.11,-122"/>
<text text-anchor="middle" x="601" y="-99.8" font-family="Times,serif" font-size="14.00">NotFoundComponent</text>
</g>
<!-- NotFoundComponent&#45;&gt;AppModule -->
<g id="edge11" class="edge">
<title>NotFoundComponent&#45;&gt;AppModule</title>
<path fill="none" stroke="black" d="M601,-122.3C601,-140.27 601,-165 601,-165 601,-165 969.19,-165 969.19,-165"/>
<polygon fill="black" stroke="black" points="969.19,-168.5 979.19,-165 969.19,-161.5 969.19,-168.5"/>
</g>
<!-- ProjectsComponent -->
<g id="node12" class="node">
<title>ProjectsComponent</title>
<polygon fill="#ffffb3" stroke="black" points="514.43,-122 387.57,-122 387.57,-86 514.43,-86 514.43,-122"/>
<text text-anchor="middle" x="451" y="-99.8" font-family="Times,serif" font-size="14.00">ProjectsComponent</text>
</g>
<!-- ProjectsComponent&#45;&gt;AppModule -->
<g id="edge12" class="edge">
<title>ProjectsComponent&#45;&gt;AppModule</title>
<path fill="none" stroke="black" d="M451,-122.11C451,-141.34 451,-169 451,-169 451,-169 969.09,-169 969.09,-169"/>
<polygon fill="black" stroke="black" points="969.09,-172.5 979.09,-169 969.09,-165.5 969.09,-172.5"/>
</g>
<!-- SafePipe -->
<g id="node13" class="node">
<title>SafePipe</title>
<polygon fill="#ffffb3" stroke="black" points="369.76,-122 304.24,-122 304.24,-86 369.76,-86 369.76,-122"/>
<text text-anchor="middle" x="337" y="-99.8" font-family="Times,serif" font-size="14.00">SafePipe</text>
</g>
<!-- SafePipe&#45;&gt;AppModule -->
<g id="edge13" class="edge">
<title>SafePipe&#45;&gt;AppModule</title>
<path fill="none" stroke="black" d="M337,-122.03C337,-142.77 337,-174 337,-174 337,-174 969.24,-174 969.24,-174"/>
<polygon fill="black" stroke="black" points="969.24,-177.5 979.24,-174 969.24,-170.5 969.24,-177.5"/>
</g>
<!-- SkilsComponent -->
<g id="node14" class="node">
<title>SkilsComponent</title>
<polygon fill="#ffffb3" stroke="black" points="285.84,-122 176.16,-122 176.16,-86 285.84,-86 285.84,-122"/>
<text text-anchor="middle" x="231" y="-99.8" font-family="Times,serif" font-size="14.00">SkilsComponent</text>
</g>
<!-- SkilsComponent&#45;&gt;AppModule -->
<g id="edge14" class="edge">
<title>SkilsComponent&#45;&gt;AppModule</title>
<path fill="none" stroke="black" d="M231,-122.29C231,-144.21 231,-178 231,-178 231,-178 969.08,-178 969.08,-178"/>
<polygon fill="black" stroke="black" points="969.08,-181.5 979.08,-178 969.08,-174.5 969.08,-181.5"/>
</g>
<!-- AppComponent  -->
<g id="node17" class="node">
<title>AppComponent </title>
<polygon fill="#80b1d3" stroke="black" points="1075.44,-252 966.56,-252 966.56,-216 1075.44,-216 1075.44,-252"/>
<text text-anchor="middle" x="1021" y="-229.8" font-family="Times,serif" font-size="14.00">AppComponent </text>
</g>
<!-- AppModule&#45;&gt;AppComponent  -->
<g id="edge16" class="edge">
<title>AppModule&#45;&gt;AppComponent </title>
<path fill="none" stroke="black" stroke-dasharray="1,5" d="M1021,-187.11C1021,-187.11 1021,-205.99 1021,-205.99"/>
<polygon fill="black" stroke="black" points="1017.5,-205.99 1021,-215.99 1024.5,-205.99 1017.5,-205.99"/>
</g>
<!-- AppRoutingModule -->
<g id="node16" class="node">
<title>AppRoutingModule</title>
<polygon fill="#8dd3c7" stroke="black" points="152.27,-122 149.27,-126 128.27,-126 125.27,-122 23.73,-122 23.73,-86 152.27,-86 152.27,-122"/>
<text text-anchor="middle" x="88" y="-99.8" font-family="Times,serif" font-size="14.00">AppRoutingModule</text>
</g>
<!-- AppRoutingModule&#45;&gt;AppModule -->
<g id="edge15" class="edge">
<title>AppRoutingModule&#45;&gt;AppModule</title>
<path fill="none" stroke="black" d="M88,-122.32C88,-145.66 88,-183 88,-183 88,-183 969.1,-183 969.1,-183"/>
<polygon fill="black" stroke="black" points="969.1,-186.5 979.1,-183 969.1,-179.5 969.1,-186.5"/>
</g>
</g>
</svg>
